<?xml version="1.0" standalone="no"?>
<!DOCTYPE svg PUBLIC "-//W3C//DTD SVG 20010904//EN"
 "http://www.w3.org/TR/2001/REC-SVG-20010904/DTD/svg10.dtd">
<svg version="1.0" xmlns="http://www.w3.org/2000/svg"
 width="1280.000000pt" height="1280.000000pt" viewBox="0 0 1280.000000 1280.000000"
 preserveAspectRatio="xMidYMid meet">

<g transform="translate(0.000000,1280.000000) scale(0.100000,-0.100000)"
fill="#000000" stroke="none">
<path d="M6395 9791 c-16 -4 -46 -14 -67 -24 -20 -9 -66 -19 -103 -22 -81 -6
-115 -14 -272 -68 -75 -25 -123 -46 -123 -54 0 -7 -12 -19 -27 -25 -16 -6 -70
-31 -121 -55 -69 -32 -92 -48 -88 -59 4 -9 -3 -18 -17 -23 -13 -5 -29 -16 -36
-25 -7 -9 -20 -16 -27 -16 -26 0 -99 -61 -96 -80 2 -12 -8 -22 -35 -33 -47
-18 -69 -42 -103 -110 -20 -41 -33 -54 -60 -63 -27 -9 -38 -20 -50 -50 -8 -22
-27 -59 -41 -84 -15 -25 -30 -55 -34 -67 -3 -13 -12 -23 -19 -23 -12 0 -82
-146 -101 -207 -3 -13 -11 -22 -16 -20 -14 3 -62 -165 -91 -313 -20 -100 -23
-146 -23 -350 1 -202 4 -252 24 -353 28 -147 57 -246 81 -272 10 -11 24 -40
30 -65 7 -25 27 -72 46 -106 19 -33 34 -71 34 -82 0 -12 6 -22 13 -22 16 0 51
-45 62 -79 12 -38 66 -112 90 -123 13 -6 26 -21 29 -33 8 -32 52 -82 98 -111
21 -13 38 -31 38 -39 0 -15 87 -89 118 -100 9 -3 26 -20 37 -36 14 -22 53 -48
132 -88 61 -31 112 -61 112 -67 1 -7 9 -14 19 -17 110 -36 273 -97 292 -110
57 -37 213 -58 500 -67 212 -7 297 -14 370 -29 52 -12 105 -21 118 -21 13 0
22 -6 22 -15 0 -16 30 -35 55 -35 9 0 64 -18 122 -40 59 -22 119 -40 134 -40
21 0 28 -5 31 -22 3 -24 90 -88 119 -88 18 0 49 -30 49 -48 0 -6 9 -13 19 -17
11 -3 57 -43 103 -89 46 -46 93 -89 106 -95 13 -7 27 -24 33 -38 15 -40 80
-133 93 -133 6 0 17 -12 23 -27 30 -73 81 -183 105 -223 50 -86 101 -277 113
-425 4 -44 11 -90 17 -102 15 -31 -8 -365 -30 -428 -6 -16 -15 -52 -20 -80 -6
-27 -17 -77 -27 -110 -9 -33 -16 -67 -16 -75 -1 -43 -10 -62 -29 -57 -21 5
-24 -3 -20 -56 1 -15 -3 -27 -8 -27 -6 0 -13 -14 -17 -31 -4 -18 -15 -33 -26
-36 -10 -3 -23 -20 -29 -38 -12 -38 -42 -75 -59 -75 -7 0 -19 -17 -28 -37 -8
-21 -22 -45 -30 -53 -8 -8 -23 -30 -34 -49 -11 -18 -29 -36 -40 -38 -14 -4
-19 -12 -16 -24 3 -12 -10 -32 -42 -61 -26 -24 -74 -67 -106 -96 -32 -29 -70
-55 -84 -59 -34 -8 -70 -35 -71 -51 0 -14 -158 -92 -220 -109 -19 -6 -52 -22
-73 -36 -21 -14 -61 -30 -90 -36 -29 -5 -92 -17 -142 -26 -182 -34 -472 -35
-620 -1 -81 18 -211 21 -220 5 -4 -6 -13 -8 -21 -5 -11 4 -14 -5 -14 -37 0
-23 4 -48 8 -55 13 -20 99 -49 182 -61 41 -6 111 -17 155 -23 102 -16 319 -16
410 1 39 7 115 19 170 27 122 18 273 62 297 86 10 10 25 18 33 18 8 0 15 4 15
8 0 5 17 14 38 20 77 23 192 83 208 108 18 26 69 56 116 68 19 4 34 19 48 45
14 28 30 43 55 51 40 13 104 83 112 123 4 19 12 27 27 27 16 0 35 21 74 80 29
44 58 80 66 80 14 0 102 170 121 235 7 22 18 40 26 40 21 0 83 201 119 387 6
32 17 64 24 70 9 10 11 75 8 276 -3 144 -8 262 -13 262 -11 0 -26 59 -35 135
-3 33 -13 75 -20 94 -8 18 -14 48 -14 65 0 31 1 31 18 10 9 -11 33 -32 52 -45
19 -13 70 -56 114 -96 44 -40 99 -82 122 -93 24 -11 46 -26 51 -33 10 -17 100
-68 173 -98 30 -12 62 -28 71 -36 27 -22 80 -16 111 14 15 15 28 33 28 40 0
10 -58 113 -63 113 -1 0 -32 11 -69 24 -71 26 -86 35 -194 112 -39 28 -85 56
-103 63 -18 8 -34 23 -37 37 -6 24 -34 50 -91 84 -19 11 -43 40 -58 70 -14 27
-32 50 -41 50 -20 0 -61 45 -69 77 -3 14 -11 31 -18 39 -51 57 -87 110 -87
129 0 7 -5 15 -10 17 -17 5 -80 172 -70 182 15 15 -27 113 -51 119 -15 4 -31
62 -34 117 0 8 -6 26 -14 39 -19 34 -28 396 -12 513 14 109 50 250 66 263 7 5
31 71 55 145 34 105 50 142 74 165 31 30 65 86 111 183 17 36 31 52 44 52 20
0 55 37 83 89 9 17 33 41 53 52 19 12 35 25 35 30 0 5 6 9 13 9 16 0 57 42 57
58 0 7 11 17 25 22 14 5 39 20 56 32 16 12 49 30 72 38 23 8 46 25 51 37 10
22 139 80 241 109 28 8 55 21 61 29 6 8 16 15 22 15 20 0 32 37 32 94 0 49 -3
58 -26 73 -24 15 -31 15 -82 2 -32 -8 -58 -20 -58 -26 -1 -7 -2 -17 -3 -22 0
-5 -13 -12 -28 -16 -65 -16 -221 -89 -253 -119 -19 -18 -79 -57 -132 -85 -55
-29 -99 -60 -103 -70 -3 -11 -18 -27 -32 -36 -23 -16 -44 -36 -84 -83 -6 -7
-18 -12 -27 -10 -13 3 -17 14 -15 48 18 463 14 548 -35 728 -17 62 -34 139
-38 170 -5 41 -13 63 -30 79 -13 12 -24 29 -24 38 0 8 -4 15 -9 15 -5 0 -12
16 -16 37 -3 20 -20 61 -36 91 -16 30 -29 61 -29 68 0 7 -25 37 -55 68 -30 30
-55 63 -55 73 0 10 -9 24 -20 31 -11 7 -20 19 -20 27 0 8 -6 12 -13 9 -8 -3
-18 9 -25 29 -14 40 -76 107 -98 107 -28 0 -76 41 -71 61 3 10 -4 25 -16 36
-21 17 -21 17 -7 -1 13 -17 10 -16 -30 4 -68 34 -100 59 -100 78 0 10 -8 23
-17 29 -34 23 -148 80 -185 92 -20 7 -40 21 -43 31 -4 13 -25 25 -63 36 -31 9
-70 23 -87 30 -44 18 -102 31 -174 39 -35 3 -116 20 -180 36 -107 27 -129 29
-286 28 -93 -1 -183 -5 -200 -8z m400 -177 c50 -8 110 -19 135 -24 25 -5 88
-19 140 -30 112 -24 169 -53 150 -75 -11 -13 -6 -15 28 -15 58 0 205 -71 250
-121 20 -22 54 -48 77 -58 42 -19 83 -57 72 -68 -4 -3 14 -17 40 -30 57 -29
85 -53 109 -99 10 -18 24 -34 31 -34 6 0 15 -9 18 -20 4 -11 18 -32 31 -45 13
-13 29 -35 35 -47 20 -45 38 -71 54 -80 15 -9 82 -142 111 -223 8 -21 22 -47
30 -57 16 -17 38 -90 54 -178 4 -25 14 -74 22 -110 9 -44 13 -143 13 -310 0
-203 -3 -254 -17 -300 -10 -30 -22 -82 -29 -115 -12 -64 -28 -105 -29 -72 0
38 -16 13 -31 -50 -9 -38 -33 -106 -53 -153 -20 -46 -36 -88 -36 -94 0 -5 -9
-18 -21 -30 -49 -50 -119 -150 -119 -171 0 -15 -18 -36 -56 -66 -30 -24 -61
-55 -69 -69 -7 -14 -43 -46 -78 -70 -36 -25 -68 -53 -70 -62 -3 -9 -29 -29
-58 -44 -30 -15 -58 -32 -64 -39 -5 -6 -38 -22 -72 -35 -34 -13 -60 -27 -57
-32 8 -12 -43 -33 -171 -73 -66 -20 -161 -49 -211 -65 -127 -40 -244 -54 -399
-46 -127 6 -256 26 -279 44 -6 5 -72 26 -146 46 -148 40 -232 75 -270 111 -14
13 -51 35 -83 49 -71 31 -119 64 -114 79 2 6 -23 27 -55 47 -31 19 -76 52 -98
73 -52 50 -130 142 -130 153 0 5 -9 15 -19 21 -26 17 -75 90 -90 135 -7 20
-23 48 -36 63 -14 14 -25 32 -25 39 0 8 -6 16 -14 19 -16 6 -56 107 -56 141 0
13 -6 29 -14 35 -15 12 -31 74 -27 103 1 9 -7 21 -17 27 -11 6 -22 23 -25 38
-3 16 -15 59 -26 98 -19 61 -21 95 -20 285 0 118 4 235 9 260 16 87 39 165 60
205 11 21 20 48 20 58 0 10 6 33 14 50 8 18 31 75 51 127 21 52 48 104 60 115
13 11 35 44 49 72 14 29 49 78 78 108 29 31 58 69 66 86 16 31 70 77 114 96
15 7 28 21 30 35 2 16 24 36 73 65 38 24 74 52 80 63 10 19 185 110 212 110 7
0 24 11 38 24 34 31 154 68 345 105 285 55 295 56 485 25z m1087 -2929 c-11
-247 0 -549 19 -561 5 -3 9 -18 9 -33 0 -37 28 -170 42 -198 21 -43 -3 -38
-48 10 -24 26 -44 51 -44 55 0 4 -19 16 -42 26 -54 22 -78 44 -78 67 0 12 -10
21 -27 25 -16 4 -47 20 -70 35 -23 16 -53 33 -68 39 -14 6 -43 24 -63 41 -22
18 -87 49 -157 75 -66 24 -126 51 -135 60 -13 14 -13 17 4 30 11 7 61 30 112
50 51 19 98 42 104 49 6 7 54 35 106 61 62 32 99 57 105 71 4 12 21 29 37 37
16 8 48 31 71 50 23 19 50 38 61 41 10 3 22 15 25 26 4 12 14 19 23 17 14 -3
17 -15 14 -73z m385 -2072 c-2 -21 -4 -4 -4 37 0 41 2 58 4 38 2 -21 2 -55 0
-75z"/>
<path d="M6505 9010 c-153 -19 -260 -48 -260 -71 0 -8 -20 -21 -45 -29 -88
-29 -210 -94 -210 -112 0 -21 -59 -78 -81 -78 -9 0 -38 -34 -67 -80 -28 -44
-57 -80 -64 -80 -18 0 -88 -157 -88 -197 0 -43 39 -73 94 -73 51 0 81 24 95
75 5 20 27 53 48 73 21 21 48 59 61 85 23 47 58 81 93 92 11 4 26 20 35 37 16
31 90 70 224 119 36 12 68 28 72 33 5 7 76 12 188 14 160 4 180 2 180 -12 0
-9 8 -16 19 -16 18 0 165 -51 245 -85 42 -18 66 -37 66 -54 0 -5 14 -19 30
-31 17 -12 49 -49 71 -82 22 -34 51 -70 65 -81 15 -11 35 -40 45 -65 29 -68
69 -216 69 -257 0 -20 5 -46 11 -57 13 -24 -7 -169 -42 -306 -10 -40 -16 -79
-13 -86 11 -30 -47 -116 -78 -116 -12 0 -18 -7 -18 -24 0 -28 -45 -86 -66 -86
-8 0 -17 -13 -21 -30 -4 -25 -21 -40 -87 -81 -44 -27 -92 -52 -106 -56 -14 -3
-34 -14 -45 -23 -36 -32 -152 -50 -317 -50 -173 0 -263 16 -315 56 -18 13 -61
37 -95 53 -69 31 -128 75 -128 97 0 7 -10 18 -22 25 -13 6 -38 25 -56 42 -40
39 -90 42 -126 8 -18 -17 -25 -19 -29 -9 -3 7 -6 -11 -6 -39 -1 -47 2 -54 27
-70 15 -10 31 -23 35 -30 4 -7 15 -13 23 -13 8 0 23 -20 34 -44 17 -41 26 -48
107 -87 48 -23 102 -54 118 -69 65 -59 400 -114 552 -91 197 31 313 64 320 92
4 13 23 24 58 35 66 19 133 66 141 99 4 16 16 28 32 32 30 7 75 54 102 105 11
21 31 45 44 53 27 18 71 113 117 255 30 90 32 106 38 295 5 182 4 201 -11 216
-11 10 -18 31 -18 52 0 20 -6 51 -14 69 -8 18 -18 50 -21 70 -3 21 -13 44 -21
52 -8 9 -22 38 -30 66 -11 37 -20 50 -34 50 -20 0 -60 48 -60 73 0 17 -65 77
-83 77 -7 0 -18 9 -25 20 -7 11 -18 20 -25 20 -7 0 -26 14 -43 31 -16 17 -46
38 -66 46 -20 8 -39 20 -41 27 -3 7 -26 19 -52 26 -30 8 -50 20 -52 31 -5 17
-28 25 -195 63 -69 16 -177 18 -283 6z"/>
<path d="M5453 5140 c-29 -12 -35 -68 -37 -343 -1 -306 6 -326 130 -352 95
-20 114 -14 114 38 0 22 -3 37 -6 34 -4 -3 -18 3 -32 13 -13 11 -31 20 -38 20
-7 0 -20 10 -28 22 -14 19 -16 65 -16 300 l0 278 -32 -1 c-18 0 -43 -4 -55 -9z"/>
<path d="M7525 5142 c-11 -2 -23 -7 -27 -11 -4 -4 -10 -135 -12 -291 l-5 -285
-108 -8 c-59 -4 -127 -5 -149 -2 -39 5 -42 8 -48 43 -8 51 -8 92 2 92 4 0 6
21 4 48 -3 38 1 52 20 75 23 26 26 27 131 27 l107 0 0 40 c0 37 -2 39 -36 46
-63 12 -235 -1 -280 -21 -66 -30 -74 -52 -74 -210 0 -146 6 -169 55 -215 26
-24 31 -25 198 -28 219 -4 273 10 299 78 7 20 13 610 5 616 -8 5 -65 10 -82 6z"/>
<path d="M4370 4919 c-97 -11 -124 -23 -161 -70 l-31 -39 4 -138 c3 -128 5
-141 28 -175 13 -20 35 -41 48 -46 13 -6 88 -11 170 -11 l147 0 1 50 1 50
-119 0 c-66 0 -128 5 -139 10 -17 9 -19 22 -19 103 0 52 6 109 14 132 l14 40
136 3 c125 2 136 1 145 -17 6 -11 9 -35 7 -53 l-3 -33 -114 -6 c-63 -3 -124
-11 -136 -18 -25 -13 -29 -40 -13 -72 10 -17 22 -19 148 -18 158 0 200 11 221
54 38 78 13 198 -46 229 -64 33 -163 41 -303 25z"/>
<path d="M2969 4905 c-30 -10 -59 -30 -87 -60 l-42 -46 0 -129 c0 -125 1 -129
27 -161 50 -59 88 -69 270 -69 263 0 279 15 267 244 -7 144 -23 193 -73 217
-40 19 -304 23 -362 4z m301 -95 c5 -8 10 -70 10 -137 l0 -123 -139 0 c-180 0
-187 6 -179 151 3 55 8 74 23 85 10 8 13 14 7 14 -22 0 -13 19 11 22 12 2 75
3 140 3 94 0 120 -3 127 -15z"/>
<path d="M3559 4913 c-26 -4 -27 -5 -34 -116 -11 -154 -12 -297 -2 -329 7 -26
11 -28 65 -28 l58 0 -4 173 c-4 166 -3 173 18 195 20 21 28 22 131 20 60 -2
109 -6 109 -10 0 -4 12 -19 25 -32 24 -24 25 -30 25 -163 0 -188 -1 -183 72
-183 l60 0 -5 174 c-9 289 -28 306 -342 304 -82 -1 -162 -3 -176 -5z"/>
<path d="M4926 4901 c-77 -27 -90 -60 -94 -243 -4 -165 -6 -160 68 -198 40
-20 56 -22 223 -21 99 1 184 4 188 7 5 3 9 25 9 48 l0 43 -46 7 c-26 3 -109 6
-185 6 -175 0 -173 -2 -167 124 4 91 17 129 48 142 8 4 88 9 177 12 l161 4 4
39 c4 49 3 49 -187 48 -116 0 -161 -5 -199 -18z"/>
<path d="M5863 4910 c-127 -26 -156 -76 -151 -262 4 -143 14 -166 88 -195 36
-15 74 -18 200 -18 195 1 228 9 257 67 18 39 20 56 15 168 -7 181 -33 224
-143 240 -77 11 -208 11 -266 0z m271 -102 c3 -13 6 -76 6 -141 l0 -118 -147
3 -148 3 0 28 c1 15 -3 27 -7 27 -11 0 -9 97 3 149 15 65 26 70 165 71 118 0
122 -1 128 -22z"/>
<path d="M6392 4907 c-6 -7 -12 -81 -14 -172 -3 -153 -2 -162 21 -202 13 -22
38 -52 55 -65 30 -22 38 -23 249 -26 201 -3 220 -2 232 15 7 10 10 22 7 28 -4
5 -9 105 -12 220 l-5 210 -43 3 c-72 5 -74 2 -71 -192 3 -198 12 -184 -123
-185 -95 -1 -161 17 -178 50 -6 10 -10 88 -10 173 l0 156 -49 0 c-27 0 -53 -6
-59 -13z"/>
</g>
</svg>
