<svg id="SvgjsSvg1001" xmlns="http://www.w3.org/2000/svg" viewBox="0 0 94.5 115.07">
  <defs>
    <style>
      .cls-1 {
        fill: #112f91;
        opacity: 0.97;
      }

      .cls-1, .cls-2 {
        fill-rule: evenodd;
        isolation: isolate;
      }

      .cls-2 {
        fill: #1b7fbd;
        opacity: 0.18;
      }
    </style>
  </defs>
  <g id="SvgjsG1008">
    <path class="cls-1" d="M62.5,35.07a2.85,2.85,0,0,1,3,1,74.57,74.57,0,0,1-27,42.5Q27.12,86.13,16,94.07a65.57,65.57,0,0,0-8,17,250,250,0,0,1,56.5-16.5,103.46,103.46,0,0,1,27,1,4.33,4.33,0,0,1,3,2.5,382.46,382.46,0,0,0-39,3.5q-22.26,5.58-44,13a12.44,12.44,0,0,1-7,0q3.95-53.31,41-92A45.41,45.41,0,0,0,30,35.07,133.81,133.81,0,0,0,4.5,85.57c-1,.59-1.65.26-2-1q-11.37-46.9,29-73A79.35,79.35,0,0,1,76.5.07q-4.69,12.78-8.5,26a28.64,28.64,0,0,1-12.5,8.5A25.3,25.3,0,0,0,62.5,35.07Z"/>
    <path class="cls-2" d="M62.5,35.07q1.81-1.92,4,0a1.12,1.12,0,0,1-1,1A2.85,2.85,0,0,0,62.5,35.07Z"/>
  </g>
</svg>
