<?xml version="1.0" encoding="UTF-8"?>
<svg version="1.1" viewBox="0 0 1600 1064" width="1280" height="1280" xmlns="http://www.w3.org/2000/svg">
<path transform="translate(816 107)" d="m0 0c0.957-0.00807 1.91-0.0161 2.9-0.0245 2.02-0.0137 4.04-0.0245 6.05-0.0324 2.02-0.0114 4.04-0.0318 6.06-0.0615 14.4-0.211 27.7 1.03 41.7 4.36 1.11 0.263 1.11 0.263 2.24 0.53 4.63 1.11 9.23 2.34 13.8 3.59 1.32 0.351 2.63 0.701 3.95 1.05 9.93 2.68 9.93 2.68 14 4.82 1.43 0.356 2.87 0.668 4.31 0.938 4.25 0.905 7.86 1.99 11.7 4.06 0.125 0.655 0.25 1.31 0.379 1.98 0.205 0.665 0.41 1.33 0.621 2.02 2.2 1.15 2.2 1.15 4.94 1.88 5.12 1.68 9.29 3.93 13.8 6.8 2.63 1.55 5.32 2.42 8.23 3.32 0.33 0.66 0.66 1.32 1 2h2v4c0.66 0.248 1.32 0.495 2 0.75 0.99 0.412 1.98 0.825 3 1.25 0.889 0.367 0.889 0.367 1.8 0.742 6.01 2.72 13.3 7.14 16.1 13.3 1.46 2.69 3.4 3.46 6.05 4.94 5.7 4.36 9.83 8.08 12 15 0.33 0.99 0.66 1.98 1 3l3-1c0.0825 0.619 0.165 1.24 0.25 1.88 0.563 2.31 0.563 2.31 2.81 3.38 0.639 0.248 1.28 0.495 1.94 0.75v4c1.55 2.62 3.15 4.12 5.56 6 2.42 1.98 3.12 3.27 4.44 6 0.99 0.33 1.98 0.66 3 1 0.926 2.42 1.46 4.84 2.06 7.36 0.818 2.77 0.818 2.77 2.93 5.04 2.41 3.11 2.99 5.58 3.76 9.41 0.242 1.16 0.485 2.32 0.734 3.52 0.255 1.32 0.255 1.32 0.516 2.67h2c0.0825 0.763 0.165 1.53 0.25 2.31 0.91 3.26 1.96 3.91 4.75 5.69 0.66 0.66 1.32 1.32 2 2-0.0322 1.83-0.0669 3.66-0.113 5.49 0.233 5.18 1.77 10.2 3.05 15.2 0.551 2.21 1.1 4.42 1.65 6.64 0.246 0.97 0.492 1.94 0.746 2.94 0.441 1.82 0.838 3.64 1.19 5.48 0.356 2.26 0.356 2.26 1.5 4.05 1.48 3.36 1.41 6.83 1.54 10.5 0.0611 1.46 0.125 2.93 0.191 4.39 0.0239 0.645 0.0479 1.29 0.0725 1.95 0.143 1.99 0.398 3.96 0.683 5.93 0.7 5.46 0.615 10.9 0.588 16.4-0.00212 1.68-0.00212 1.68-0.00429 3.4-0.00557 3.56-0.0181 7.11-0.0309 10.7-0.00502 2.42-0.00958 4.84-0.0137 7.26-0.011 5.91-0.0277 11.8-0.0488 17.7 3.93-1.49 6.88-3.2 10.2-5.81 0.86-0.666 1.72-1.33 2.61-2.02 2.35-2.01 2.35-2.01 3.21-4.77 1.3-3.14 2.6-3.57 5.68-4.89 3.32-1.51 6.23-3.03 9.12-5.25 3.02-2.13 4.64-2.73 8.19-3.25 0.33-0.66 0.66-1.32 1-2h3v-4c6.54-3.4 13.1-6.34 20-9 2.65-1.03 5.29-2.08 7.94-3.12 0.651-0.254 1.3-0.508 1.97-0.769 2.95-1.17 5.44-2.34 8.09-4.11 6.38-2.75 13.2-5.49 20-2.81 2.31 2.09 2.52 2.8 3 5.81-0.0109 2.02-0.1 4.05-0.25 6.06-0.101 1.56-0.101 1.56-0.203 3.16-0.588 2.99-1.1 4.03-3.55 5.78h-2c-0.356 0.961-0.356 0.961-0.719 1.94-1.28 2.06-1.28 2.06-3.31 2.71-0.815 0.0941-1.63 0.188-2.47 0.285-4.94 0.797-8.67 2.49-13.1 4.83-3.03 1.52-6.11 2.53-9.33 3.55-3.21 1.03-6.11 2.11-9.11 3.68-0.211 0.975-0.211 0.975-0.426 1.97-0.574 2.03-0.574 2.03-2.43 3.19-0.77 0.298-1.54 0.596-2.33 0.902-0.811 0.33-1.62 0.66-2.46 1-0.777 0.309-1.55 0.619-2.36 0.938-4.05 1.78-4.05 1.78-7.44 4.5-1.56 1.5-1.56 1.5-5.19 2.94-1.11 0.516-2.23 1.03-3.38 1.56-0.601 1.9-0.601 1.9-1 4-1.86 1.95-3.81 3.39-6 5h-2c-0.33 0.99-0.66 1.98-1 3-1.07 0.392-2.14 0.784-3.25 1.19-4.82 1.89-6.31 5.48-8.75 9.81-4.83 7.65-4.83 7.65-9.38 9h-2.62c-0.147 0.545-0.294 1.09-0.445 1.65-1.62 5.43-3.86 9.54-7.14 14.1-1.4 2.2-2.19 4.17-2.97 6.65-0.474 1.18-0.949 2.35-1.44 3.56-0.801 0.298-1.6 0.596-2.43 0.902-3.4 1.45-3.82 2.86-5.2 6.22-0.576 1.37-0.576 1.37-1.16 2.76-0.599 1.54-0.599 1.54-1.21 3.12-0.482 1.23-0.964 2.45-1.46 3.71-2.13 5.71-3.69 11.6-5.29 17.5-0.371 1.29-0.371 1.29-0.75 2.62-0.325 1.17-0.325 1.17-0.656 2.37-0.418 0.902-0.418 0.902-0.844 1.82-0.99 0.33-1.98 0.66-3 1l-0.621 3.25c-0.272 1.4-0.544 2.79-0.816 4.19-0.135 0.707-0.269 1.41-0.408 2.14-1.04 5.31-1.04 5.31-2.15 6.42-2.78 13.6-3.48 27.1-3.39 41 0.0164 3.12-1.25e-4 6.24-0.019 9.36 0.00198 2 0.00581 3.99 0.0117 5.99-0.00911 1.39-0.00911 1.39-0.0184 2.81 0.00946 0.856 0.0189 1.71 0.0287 2.59 0.00239 0.75 0.00477 1.5 0.00723 2.27 0.483 2.5 1.5 3.31 3.38 4.97 1.44 2.88 1.09 5.42 1.06 8.62-0.0135 1.78-0.0135 1.78-0.0273 3.6-0.0174 1.37-0.0174 1.37-0.0352 2.77 0.66 0.33 1.32 0.66 2 1 0.468 2.34 0.827 4.7 1.12 7.06 0.168 1.29 0.335 2.58 0.508 3.91 0.121 0.999 0.242 2 0.367 3.03 0.99-0.33 1.98-0.66 3-1-0.0412 0.949-0.0825 1.9-0.125 2.88-0.225 3.23-0.225 3.23 2.12 5.12 0.514 1.55 0.965 3.11 1.38 4.69 1.1 3.86 2.47 6.97 4.58 10.4 3.52 6.44 5.43 13.8 7.04 20.9 0.33-1.65 0.66-3.3 1-5 2 1 2 1 2.61 2.71 0.192 0.733 0.384 1.47 0.582 2.22 1.53 4.89 4.01 8.47 7.04 12.6 2.21 3.11 3.93 6.38 5.63 9.79 1.11 2.05 1.11 2.05 4.14 2.71v2c0.577 0.248 1.15 0.495 1.75 0.75 5.7 3.17 7.28 7.33 9.25 13.2 1.65 0.403 3.29 0.805 4.95 1.2 4.03 1.58 6.99 4.83 10.1 7.8-0.33 1.32-0.66 2.64-1 4 0.99 0.0206 1.98 0.0412 3 0.0625 4.46 0.618 6.71 3.08 9.89 6.09 4.73 4.15 9.91 6.83 16.1 7.85-0.33 0.99-0.66 1.98-1 3 1.87 0.989 3.75 1.97 5.62 2.94 1.04 0.545 2.09 1.09 3.16 1.65 3.15 1.38 5.83 1.93 9.21 2.41 5.54 2.6 7.52 6.18 10.1 11.5 0.945 2.71 1.14 4.68 0.883 7.54-1.19 2-1.19 2-3 4-0.681 0.928-1.36 1.86-2.06 2.81-3.89 2.9-6.18 2.39-10.8 1.78-0.696-0.195-1.39-0.389-2.11-0.59-0.33-0.66-0.66-1.32-1-2-2.07-0.993-2.07-0.993-4.56-1.88-4.65-1.79-9.03-3.81-13.4-6.12-1.42-0.715-1.42-0.715-2.87-1.45-0.991-0.513-1.98-1.03-3-1.55-1.39-0.712-1.39-0.712-2.8-1.44-2.32-1.56-2.32-1.56-3.27-3.62-1.6-2.94-3.93-2.98-7.05-3.94-2.82-1.77-2.82-1.77-5.56-3.81-0.909-0.666-1.82-1.33-2.75-2.02-2.76-2.23-5.18-4.65-7.68-7.17-1.96-1.71-3.94-3.4-5.94-5.06l-3.03-2.54c-2.93-2.32-5.89-4.38-9.04-6.4 0.583 4.78 1.56 9.16 3 13.8 1.6 5.39 2.48 10.3 2.63 15.9 0.181 2.39 0.181 2.39 1.87 4.08 1.95 2.89 1.87 4.72 1.86 8.19 0.0045 1.8 0.0045 1.8 0.00909 3.64-0.0185 1.94-0.0185 1.94-0.0374 3.92-0.00306 1.35-0.00493 2.7-0.00568 4.04-0.0046 2.82-0.019 5.65-0.0412 8.47-0.0282 3.61-0.0392 7.21-0.0437 10.8-0.00517 3.45-0.0197 6.9-0.0344 10.4-0.00425 1.29-0.0085 2.58-0.0129 3.91-0.0144 1.81-0.0144 1.81-0.0291 3.66-0.0102 1.59-0.0102 1.59-0.0207 3.21-0.143 3.07-0.574 5.99-1.14 9.01-0.66-0.33-1.32-0.66-2-1-2.13 3.6-2.68 7.15-3.38 11.2-2.23 12.5-5.46 24.5-9.25 36.6-0.452 1.46-0.452 1.46-0.913 2.94-0.289 0.904-0.578 1.81-0.876 2.74-0.257 0.809-0.515 1.62-0.78 2.45-0.806 1.99-0.806 1.99-2.81 3.99v-2h-2c-0.195 1.08-0.195 1.08-0.395 2.18-1.69 7.89-4.91 14.7-9.23 21.5-1.33 2.29-2.19 4.42-3 6.93l-1.38 3.44c-0.625 0.148-1.25 0.296-1.89 0.449-2.96 0.775-3.58 2.24-5.17 4.8l-1.56 2.47c-0.994 1.65-1.97 3.3-2.94 4.96-1.88 3.03-4.11 5.61-6.44 8.31-1.32-0.33-2.64-0.66-4-1-0.289 1.28-0.578 2.56-0.875 3.88-2.17 6.52-6.8 11-12.1 15.1-2.11 0.828-2.11 0.828-3.94 1.19l-3.06 0.812c-1.68 3.37-1.68 3.37-3 7-2.61 2.68-4.08 3.88-7.81 4.38-4.64 0.91-7.76 3.43-11.2 6.62l-1.56 2.75c-1.44 2.25-1.44 2.25-4.44 3.19-0.608 0.133-1.22 0.266-1.84 0.402-2.8 0.856-5.12 2.21-7.66 3.66-4.19 2.36-7.83 3.95-12.5 5-0.804 0.206-1.61 0.412-2.44 0.625l-1.56 0.375v2c-0.969 0.268-1.94 0.536-2.94 0.812-1.01 0.392-2.02 0.784-3.06 1.19-0.33 0.99-0.66 1.98-1 3-0.949 0.0825-1.9 0.165-2.88 0.25-3.21 0.443-5.85 1.4-8.81 2.69-4.88 2.07-9.61 2.95-14.8 3.67-2.46 0.267-2.46 0.267-4.47 1.39-2.56 0.311-5.12 0.51-7.69 0.719-2.34 0.153-2.34 0.153-4.31 1.28-1.45 0.151-2.9 0.249-4.35 0.316-0.851 0.0419-1.7 0.0838-2.58 0.127-0.889 0.0393-1.78 0.0786-2.7 0.119-1.35 0.0648-1.35 0.0648-2.72 0.131-2.22 0.106-4.44 0.208-6.66 0.307v2c-13.3 1.69-26.7 1.3-40 0v-2c-0.598-0.0146-1.2-0.0292-1.81-0.0442-11.4-0.31-22.2-0.713-33.2-3.96-0.945-0.238-1.89-0.477-2.86-0.723-3.59-0.952-6.59-1.94-9.76-3.9-2.69-4.64-1.66-9.65-0.812-14.8 1.58-2.88 2.93-4.11 6.04-5.23 5.65-0.937 13.2-1 18.4 1.62 2.84 1.41 5.47 1.38 8.61 1.55 6.18 0.34 6.18 0.34 8.38 1.44 9.31 1.52 18.9 1.19 28.3 1.19 2.69 0.00222 5.39 0.0205 8.08 0.0393 1.72 0.00293 3.43 0.00492 5.15 0.00586 0.803 0.00719 1.61 0.0144 2.43 0.0218 3.86-0.016 5.71-0.0586 9-2.25 3.58-0.379 7.15-0.506 10.8-0.656 3.39-0.105 3.39-0.105 6.25-2.34 1.99 0 3.98 0.00261 5.96 0.125 2.44-0.15 3.88-1.02 6.04-2.12 2.18-0.379 2.18-0.379 4.44-0.562 3.25-0.3 6.38-0.718 9.56-1.44-0.33-1.32-0.66-2.64-1-4 9.09-3.77 9.09-3.77 13.4-4.88 4.35-1.37 7.99-3.49 11.9-5.79 2.61-1.32 4.78-1.87 7.65-2.34 0.66-0.33 1.32-0.66 2-1-0.33-0.99-0.66-1.98-1-3 0.554-0.266 1.11-0.531 1.68-0.805 0.724-0.353 1.45-0.706 2.2-1.07 0.719-0.348 1.44-0.696 2.18-1.05 2.1-1.04 2.1-1.04 3.95-3.07 0.866-0.248 1.73-0.495 2.62-0.75 3.86-1.43 6.47-3.44 9.64-6.01 1.73-1.24 1.73-1.24 3.73-1.24-0.33-1.32-0.66-2.64-1-4 1.65-0.99 3.3-1.98 5-3v2c0.681-0.701 1.36-1.4 2.06-2.12 2.67-2.71 5.57-5.03 8.58-7.35 1.8-1.69 1.8-1.69 1.36-5.53h2c0.33-0.66 0.66-1.32 1-2 0.66 0.33 1.32 0.66 2 1l1.17-1.79c2.29-3.48 4.55-6.86 7.2-10.1 1.93-2.08 1.93-2.08 1.62-5.12h2c0.289-0.784 0.578-1.57 0.875-2.38 1.12-2.62 1.12-2.62 3.12-4.62h2c0.619-1.05 1.24-2.1 1.88-3.19 0.348-0.592 0.696-1.18 1.05-1.79 1.13-2.05 1.13-2.05 2.02-4.43 1.13-2.78 2.54-5.25 4.05-7.84 2.74-4.92 4.09-9.21 5-14.8h3c2.59-5.21 4.28-9.08 4-15 0.66-0.99 1.32-1.98 2-3 1.58-5.29 2.31-10.3 2.66-15.8 0.344-2.2 0.344-2.2 2.34-5.2 0.332-2.01 0.332-2.01 0.344-4.2 0.0296-0.816 0.0593-1.63 0.0898-2.47 0.0329-1.27 0.0329-1.27 0.0664-2.57 0.233-8.86 0.233-8.86 1.52-13.1 1.4-5.16 1.27-10.1 1.23-15.4 0.00773-1.05 0.0155-2.1 0.0234-3.18-0.00258-1-0.00516-2-0.00781-3.03-0.00338-1.36-0.00338-1.36-0.00684-2.75-0.0489-2.43-0.0489-2.43-2.26-4.23-0.186-2.37-0.272-4.69-0.312-7.06-0.29-7.8-1.52-15.3-3.06-22.9-0.209-1.05-0.418-2.1-0.634-3.18-1.27-6.11-2.88-12-4.99-17.8-0.351-1.04-0.701-2.08-1.06-3.14-0.309-0.88-0.619-1.76-0.938-2.67-0.464-1.34-0.464-1.34-0.938-2.71-1.08-2.52-2.35-4.36-4.06-6.48-1.64-2.5-2.9-4.69-3.8-7.55-1.6-4.61-3.71-8.93-5.82-13.3-0.42-0.879-0.84-1.76-1.27-2.66-1.03-2.16-2.06-4.31-3.1-6.46h-2c-1.84-2.2-1.84-2.2-3.94-5.12-0.69-0.951-1.38-1.9-2.09-2.88-4.97-7.54-4.97-7.54-4.97-11-0.557-0.268-1.11-0.536-1.69-0.812-5.33-2.74-8.98-5.18-12.3-10.2-3.13-4.06-5.53-6.43-10-9l-5-5c-0.99-0.33-1.98-0.66-3-1v-3c-1.31-1.03-2.65-2.03-4-3v-2c-0.99 0.33-1.98 0.66-3 1-2.81-1.33-2.81-1.33-6-3.25-1.58-0.936-1.58-0.936-3.19-1.89-4.33-2.86-4.33-2.86-5.81-4.86v-4c-1.49 0.0986-1.49 0.0986-3.01 0.199-4.63-0.231-7.71-1.48-11.9-3.39-6.82-3-13.6-5.29-20.9-7.04-2.05-0.536-2.05-0.536-5.27-1.77-0.969-2.14-0.969-2.14-1-4-1.05-0.124-2.1-0.247-3.19-0.375-3.92-0.494-7.84-1.05-11.8-1.62-1.12-0.165-2.25-0.33-3.4-0.5-2.66-0.5-2.66-0.5-3.66-1.5-1.54-0.215-3.08-0.371-4.63-0.5-0.953-0.0825-1.91-0.165-2.89-0.25-1-0.0825-2.01-0.165-3.04-0.25-1.96-0.165-3.92-0.332-5.88-0.5-0.949-0.0799-1.9-0.16-2.88-0.242-2.36-0.227-4.68-0.535-7.02-0.883-3.6-0.369-6.13-0.0146-9.66 0.625-19 0.966-36.9-0.959-55.4-4.94-1.19-0.253-2.39-0.506-3.61-0.766-1.12-0.251-2.23-0.502-3.38-0.761-1-0.223-2-0.446-3.03-0.676-2.68-0.911-3.66-1.82-5.53-3.86-2.46-0.894-4.86-1.67-7.38-2.38-9.8-2.91-19.3-6.49-28.6-10.6v-2c-1.09-0.404-1.09-0.404-2.2-0.816-2.76-1.17-5.14-2.53-7.68-4.12-2.89-1.77-5.55-3.24-8.69-4.56-4.47-1.95-8.76-4.25-12.4-7.5-0.313-0.848-0.626-1.7-0.949-2.57-0.815-2.63-0.815-2.63-3.32-3.47-0.901-0.316-1.8-0.632-2.73-0.957-1.95-1.37-3.84-2.81-5.69-4.31-0.953-0.759-1.91-1.52-2.89-2.3-2.43-2.39-2.43-2.39-3.38-4.99-1.49-3.42-3.73-3.84-7.04-5.39-2.48-2.27-2.48-2.27-4.75-4.81-0.758-0.831-1.52-1.66-2.3-2.52-1.95-2.67-1.95-2.67-2.97-5.93-0.487-1.36-0.487-1.36-0.984-2.74-1.92-0.679-1.92-0.679-4-1-1.7-1.78-1.7-1.78-3.25-3.94-0.781-1.07-0.781-1.07-1.58-2.15-1.17-1.91-1.17-1.91-1.17-3.91h-2c-0.289-0.887-0.578-1.77-0.875-2.69-0.956-2.82-1.99-5.56-3.12-8.31h-2c-0.33-1.32-0.66-2.64-1-4-1.32-0.33-2.64-0.66-4-1l-0.0625-2.81c-0.513-3.78-2.1-6.14-4.25-9.25-3.66-5.39-5.24-10.6-6.67-16.9-1.12-3.38-2.43-4.71-5.02-7.07l-1-3c-0.429-1.27-0.429-1.27-0.867-2.57-2.43-7.51-4.12-14.9-5.48-22.7-0.531-3.01-1.13-5.99-1.78-8.97-0.982-4.76-1.33-9.53-1.63-14.4 0.0105-2.32 0.0105-2.32-1.25-3.37-0.0979-1.35-0.128-2.7-0.129-4.04-0.00315-0.858-0.0063-1.72-0.00955-2.6 0.00202-0.932 0.00405-1.86 0.00613-2.83-9.57e-4 -0.951-0.00191-1.9-0.0029-2.88-6.82e-4 -2.01 0.00117-4.03 0.00534-6.04 0.00535-3.09 5.53e-5 -6.19-0.00635-9.28 6.61e-4 -1.95 0.00194-3.9 0.00391-5.86-0.00202-0.932-0.00405-1.86-0.00613-2.83 0.00315-0.858 0.0063-1.72 0.00955-2.6 7.96e-4 -0.759 0.00159-1.52 0.00241-2.3 0.127-1.75 0.127-1.75 1.13-2.75 0.213-1.33 0.37-2.66 0.5-4 0.124-1.21 0.124-1.21 0.25-2.44 0.0825-0.846 0.165-1.69 0.25-2.56 0.163-1.67 0.329-3.33 0.5-5 0.0722-0.742 0.144-1.48 0.219-2.25 0.281-1.75 0.281-1.75 1.28-2.75 0.329-1.93 0.612-3.87 0.875-5.81 1.32-8.96 3.46-17.5 6.43-26.1 1.09-3.33 1.89-6.71 2.7-10.1 0.66 0.66 1.32 1.32 2 2 0.326-0.857 0.652-1.71 0.988-2.6 3.59-9.39 7.45-18.4 12-27.4 0.66 0.66 1.32 1.32 2 2 0.17-0.58 0.34-1.16 0.516-1.76 1.56-5.02 3.36-8.95 6.48-13.2 1.73-2.63 2.91-4.45 3.44-7.56 0.739-3.2 1.98-4.45 4.56-6.44h4c3.32-3.13 5.63-6.89 7.06-11.2 1.2-3.6 3.15-5.3 5.94-7.81 0.99-0.99 0.99-0.99 2-2h3c1.02-0.979 2.02-1.98 3-3h2c-0.495-1.98-0.495-1.98-1-4 0.626-0.41 1.25-0.82 1.9-1.24 0.817-0.539 1.63-1.08 2.48-1.63 1.22-0.801 1.22-0.801 2.46-1.62 2.24-1.47 2.24-1.47 4.16-3.51 0.66 0.33 1.32 0.66 2 1 1.08-1.18 1.08-1.18 2.19-2.38 2.65-2.47 4.42-3.56 7.81-4.62-0.495-1.98-0.495-1.98-1-4 0.594-0.219 1.19-0.438 1.8-0.664 5.86-2.24 11.2-4.94 16.7-8.02 2.75-1.46 5.49-2.45 8.48-3.32 1.35-0.638 2.69-1.29 4-2-0.495-1.49-0.495-1.49-1-3 0.811-0.242 1.62-0.485 2.46-0.734 1.66-0.503 1.66-0.503 3.36-1.02 1.08-0.325 2.16-0.65 3.27-0.984 3.05-0.951 6.03-2.05 9.02-3.18 6.4-2.35 12.9-4.07 19.5-5.78 2.33-0.605 4.65-1.21 6.98-1.82 1.52-0.394 1.52-0.394 3.07-0.796 2.27-0.474 2.27-0.474 3.33-1.69 2.48-0.549 4.94-1.04 7.44-1.5 0.675-0.13 1.35-0.26 2.04-0.395 8.9-1.66 17.8-2.27 26.8-2.34zm-26.3 26.2c-1.45 0.331-2.91 0.611-4.38 0.867-1.36 0.246-1.36 0.246-2.74 0.496-1.89 0.336-3.79 0.669-5.68 1-5.96 1.08-11.5 2.62-17.2 4.64-1.12 0.339-2.24 0.678-3.4 1.03-1.47 0.451-1.47 0.451-2.98 0.91-0.998 0.298-2 0.596-3.02 0.902-2.7 0.948-2.7 0.948-4.09 3.16-2.09 2.76-4.1 3.11-7.39 4.06-4.14 1.21-7.5 2.58-11.1 4.94-3.68 2.38-7.16 3.81-11.3 5.06-0.552 0.311-1.1 0.621-1.67 0.941-0.199 0.95-0.199 0.95-0.402 1.92-0.892 3.1-3.14 3.9-5.82 5.44-0.689 0.378-1.38 0.755-2.09 1.14-6.46 3.46-6.46 3.46-11.7 8.5v4c-2.24 1.12-4.41 2.16-6.75 3.06-5.27 3.14-10.3 8.03-12.2 13.9-1.38 1.5-1.38 1.5-3 3-0.474 0.474-0.949 0.949-1.44 1.44-1.23 1.23-2.49 2.43-3.75 3.62-2.04 1.74-2.04 1.74-1.81 3.94-0.99 0.33-1.98 0.66-3 1-0.74 1.61-1.47 3.24-2.12 4.89-0.99 2.38-2.11 4.65-3.32 6.93-0.391 0.749-0.781 1.5-1.18 2.27-1.58 2.2-2.96 2.78-5.38 3.92-0.757 1.97-1.4 3.98-2 6-0.795 1.76-1.61 3.51-2.44 5.25-2.1 4.51-3.63 8.95-4.89 13.8-0.676 2-0.676 2-2.68 4-0.839 3.26-1.47 6.54-2.12 9.84-0.879 3.16-0.879 3.16-2.34 5.04-2.36 3.27-2.85 6.91-3.66 10.8-1.77 8.2-1.77 8.2-2.88 9.31-1.65 11.2-1.22 22.8-1.24 34-0.00971 3.26-0.0408 6.52-0.0723 9.77-0.526 19.7-0.526 19.7 5.31 38.2l1-2c0.289 0.969 0.578 1.94 0.875 2.94 0.767 3.17 0.767 3.17 3.12 4.06 0.731 2.31 1.4 4.65 2 7h-2c0.33 1.65 0.66 3.3 1 5h2c1.95 4.26 3.28 8.17 4.34 12.8 1.11 3.73 2.83 7.17 4.5 10.7 1.16 2.56 1.16 2.56 2.22 6.12 0.672 2.57 0.672 2.57 2.83 3.36 3.69 1.89 5.29 5.47 7.11 9.08 0.289 1.13 0.578 2.27 0.875 3.44 1.57 4.96 4.42 8.92 8.12 12.6h3c-0.144 0.701-0.289 1.4-0.438 2.12 0.605 3.98 2.61 5.08 5.71 7.45 1.73 1.43 1.73 1.43 3.73 4.43h2v2h2c0.206 0.722 0.413 1.44 0.625 2.19 1.85 3.78 3.98 5.34 7.38 7.81h2v2c2.14 1.79 2.14 1.79 4.81 3.56 0.893 0.62 1.79 1.24 2.71 1.88 2.46 1.68 2.46 1.68 5.48 2.56 0.33 0.66 0.66 1.32 1 2-0.66 0.33-1.32 0.66-2 1 6.58 4.18 13.3 7.76 20.4 11.1 2.93 1.42 5.41 2.71 7.92 4.82 8.06 6.16 18.2 8.58 27.8 11.2 7.69 2.12 15.3 4.25 22.9 6.88 5.21 1.74 10.1 2.38 15.5 2.75 2.45 0.246 2.45 0.246 5.45 1.25 2.87 0.0972 5.71 0.14 8.57 0.133 1.26 0.00144 1.26 0.00144 2.54 0.0029 1.77 6.8e-4 3.53-0.00116 5.3-0.00534 2.71-0.00536 5.43-4.23e-5 8.14 0.00635 1.71-6.61e-4 3.43-0.00194 5.14-0.00391 1.22 0.00304 1.22 0.00304 2.47 0.00613 3.72 0.342 3.72 0.342 6.83-1.14 1.41-0.226 2.83-0.394 4.25-0.535 0.854-0.087 1.71-0.174 2.59-0.264 0.898-0.087 1.8-0.174 2.72-0.264 1.35-0.136 1.35-0.136 2.73-0.275 2.23-0.225 4.47-0.445 6.71-0.662v-3c0.918-0.11 1.84-0.219 2.78-0.332 7.96-0.934 7.96-0.934 15.6-3.23 2.96-1.18 4.87-1.69 7.94-2 3.77-0.165 3.77-0.165 6.69-2.44 2.33-0.667 4.67-1.33 7-2 0.99-0.66 1.98-1.32 3-2 2.32-0.394 4.66-0.735 7-1v-3c1.72-0.988 3.45-1.96 5.19-2.94 1.44-0.818 1.44-0.818 2.92-1.65 2.7-1.32 4.94-1.98 7.89-2.41v-2c0.66-0.248 1.32-0.495 2-0.75 3.76-1.57 7.37-3.4 11-5.25v-2h-2v-2c0.887 0.103 1.77 0.206 2.69 0.312 4.46-0.421 5.35-2 8.31-5.31 1.31-1.27 2.65-2.52 4-3.75 0.639-0.593 1.28-1.19 1.94-1.8 2.36-1.66 4.22-2.08 7.06-2.45 0.24-0.892 0.48-1.78 0.727-2.7 1.39-3.61 2.88-5.38 5.65-8.05 0.771-0.758 1.54-1.52 2.34-2.3 2.29-1.95 2.29-1.95 4.53-3.05 0.581-0.296 1.16-0.593 1.76-0.898 0.268-0.866 0.536-1.73 0.812-2.62 1.2-3.41 2.19-4.64 4.62-7.19 3.27-3.53 4.71-6.56 5.86-11.2 0.833-2.35 1.78-3.42 3.7-4.98 0.99-0.33 1.98-0.66 3-1 2.42-4.03 3.76-8.26 5.18-12.7 0.803-2.24 1.77-4.25 2.88-6.36 3.12-5.99 4.11-12.3 4.94-18.9h2c0.33 1.32 0.66 2.64 1 4 1.94-4.02 2.4-7.72 2.75-12.1 0.246-1.89 0.246-1.89 1.25-2.89 0.225-2 0.448-3.99 0.621-5.99 0.379-2.01 0.379-2.01 2.38-5.01 0.269-2.2 0.447-4.41 0.562-6.62 0.339-6.28 0.339-6.28 1.44-7.38 0.0987-1.65 0.128-3.31 0.129-4.96 0.00315-1.06 0.0063-2.12 0.00955-3.21-0.00202-1.15-0.00405-2.3-0.00613-3.49 9.57e-4 -1.17 0.00191-2.35 0.0029-3.55 6.82e-4 -2.48-0.00117-4.97-0.00534-7.45-0.00535-3.82-5.57e-5 -7.64 0.00635-11.5-6.61e-4 -2.41-0.00194-4.82-0.00391-7.22 0.00304-1.73 0.00304-1.73 0.00613-3.49-0.00315-1.06-0.0063-2.12-0.00955-3.21-7.96e-4 -0.936-0.00159-1.87-0.00241-2.84 0.11-2.11 0.11-2.11-1.13-3.13-0.373-2.31-0.699-4.62-1-6.94-0.481-4.69-0.481-4.69-2-9.06-0.272-2.2-0.445-4.4-0.621-6.61-0.298-2.45-0.298-2.45-1.36-4.83-1.42-3.56-1.77-7.15-2.26-10.9-0.922-3.19-2.4-4.35-4.76-6.62-1.05-2.38-1.05-2.38-1.88-5-1.8-5.34-4.16-10.2-6.74-15.2-1.2-2.43-2.18-4.81-3.07-7.37-1.21-3.17-1.81-4.36-4.31-6.44h-2c-0.433-1.18-0.433-1.18-0.875-2.38-0.974-2.72-0.974-2.72-3.12-4.62-1.04-2.32-2.04-4.65-3-7h-2v-2h-2c-0.433-1.14-0.433-1.14-0.875-2.31-1.09-2.84-1.09-2.84-3.12-5.69h-2c-0.227-0.536-0.454-1.07-0.688-1.62-2.73-4.94-8-12.3-13.5-14.1-0.598-0.103-1.2-0.206-1.81-0.312-0.66-0.66-1.32-1.32-2-2h-4v-2c0.66-0.33 1.32-0.66 2-1-6.79-7.24-6.79-7.24-16-10v-2h-2c-0.268-0.598-0.536-1.2-0.812-1.81-1.89-3.49-4.2-5.39-7.73-7.12-0.681-0.338-1.36-0.675-2.06-1.02-1.06-0.514-1.06-0.514-2.14-1.04-0.691-0.343-1.38-0.686-2.09-1.04-2.04-1.01-4.1-1.99-6.16-2.96-0.942-0.451-0.942-0.451-1.9-0.911-3.47-1.59-6.22-2.45-10-2.28-0.772 0.0271-1.54 0.0541-2.34 0.082-0.853 0.0522-0.853 0.0522-1.72 0.105v-2c0.66-0.33 1.32-0.66 2-1-2.82-3.16-4.87-4.6-8.96-5.63-1.44-0.372-1.44-0.372-2.91-0.751-1.01-0.245-2.02-0.489-3.06-0.741-1.03-0.259-2.06-0.519-3.12-0.786-6.57-1.62-13.1-2.95-19.8-3.76-2.13-0.324-2.13-0.324-3.13-1.32-37.9-6.47-37.9-6.47-73 1zm117 13 1 2zm108 65c0.66 1.32 1.32 2.64 2 4v-4h-2zm18 36 1 3zm-413 3c-0.33 0.99-0.66 1.98-1 3h2c-0.33-0.99-0.66-1.98-1-3zm414 0 1 3zm11 99v12h1v-12h-1zm-413 27 1 3zm4 8 1 4zm5 16 1 4zm1 4 1 2zm7 16 1 3zm10 15c0.33 1.65 0.66 3.3 1 5 0.33-1.32 0.66-2.64 1-4-0.66-0.33-1.32-0.66-2-1zm324 51c-2.28 2.82-2.28 2.82-2 6-1.07 0.112-1.07 0.112-2.16 0.227-3.6 0.982-5.48 2.69-8.28 5.15-3.7 3.23-7.12 5.53-11.6 7.62-1.88 1.38-1.88 1.38-3 3v3c-2.75 1.41-5.53 2.67-8.38 3.88-3.84 1.69-7.15 3.76-10.6 6.12-0.908 0.351-1.82 0.701-2.75 1.06-2.58 0.831-2.58 0.831-4.25 3.94-2.33 1.09-4.59 2.04-7 2.94-0.672 0.259-1.34 0.519-2.04 0.786-1.35 0.522-2.71 1.04-4.06 1.56-2.56 0.971-5.11 1.97-7.65 2.97-1.14 0.441-1.14 0.441-2.3 0.891-2.21 0.904-2.21 0.904-4.95 2.86 2.2 2.49 3.88 3.48 7.06 4.38 3.54 1.09 6.67 2.45 9.94 4.19 3.21 1.67 6.01 2.79 9.56 3.44 4.97 0.937 9.41 2.92 13.4 6 0.316 0.673 0.632 1.35 0.957 2.04 1.44 2.71 2.93 2.99 5.79 3.96 3.19 1.16 5.97 2.3 8.75 4.25 2.26 1.94 2.26 1.94 4.5 1.75v2h5c0.33 0.99 0.66 1.98 1 3h2l-1 3c0.471 0.326 0.941 0.652 1.43 0.988 0.623 0.437 1.25 0.874 1.89 1.32 0.615 0.429 1.23 0.859 1.86 1.3 1.77 1.35 3.29 2.78 4.82 4.39 0.99-0.33 1.98-0.66 3-1v2c1.48 1.22 2.96 2.43 4.46 3.62 2.06 1.84 3.28 3.93 4.54 6.38l2-2c-0.0968-2.07-0.0968-2.07-0.68-4.39-0.187-0.873-0.374-1.75-0.566-2.65-0.208-0.915-0.415-1.83-0.629-2.77-0.398-1.8-0.791-3.6-1.18-5.39-0.18-0.799-0.361-1.6-0.546-2.42-0.399-2.37-0.399-2.37-0.333-4.98 0.138-2.66 0.138-2.66-2.07-5.39-0.253-2.79-0.419-5.52-0.5-8.31-0.132-5.88-0.132-5.88-1.52-11.5-1.46-4.7-1.23-9.26-1.17-14.1 0.00717-1.02 0.0143-2.04 0.0217-3.08 0.235-22 0.235-22 2.17-23.9 0.0733-2.86 0.0924-5.7 0.0625-8.56-0.00451-0.806-0.00902-1.61-0.0137-2.44-0.0118-2-0.0298-4-0.0488-5.99-0.99-0.33-1.98-0.66-3-1zm24 69v8h1v-8h-1zm3 17v5h1v-5h-1zm1 6 1 2zm6 15 1 3zm2 5 1 2zm10 24 1 2zm14 57 1 2zm-2 1 1 4zm1 5 1 2zm2 6 1 4zm1 4 1 2zm2 10v6h1v-6h-1zm4 14v7h1v-7h-1zm1 7v46h1v-46h-1zm-19 11 1 4zm0 5v18h1v-18h-1z" fill="#F6F7F8"/>
<path transform="translate(827 205)" d="m0 0c2.21-0.0022 4.42-0.0204 6.64-0.0393 1.41-0.00293 2.83-0.00492 4.24-0.00586 1.28-0.00411 2.55-0.00822 3.86-0.0125 3.12 0.231 4.64 0.704 7.28 2.24 2.22 0.373 4.45 0.679 6.69 0.938 5.8 0.757 10.9 1.99 16.3 4.06v3c2.41 1.35 4.56 2.15 7.25 2.88 3.62 1.08 6.58 2.51 9.9 4.25 1.93 1 1.93 1 4.54 1.37 3.16 0.684 4.87 2.43 7.31 4.5 1.31 0.709 2.64 1.39 4 2-0.33 1.32-0.66 2.64-1 4 0.639 0.268 1.28 0.536 1.94 0.812 2.06 1.19 2.06 1.19 3.06 4.19 0.736 0.0838 1.47 0.168 2.23 0.254 3.35 0.902 4.7 2.2 7.08 4.68 1.05 1.07 1.05 1.07 2.11 2.15 1.57 1.91 1.57 1.91 1.57 3.91h-2c0.66 0.66 1.32 1.32 2 2 1 1.33 2 2.67 3 4 0.66 0.66 1.32 1.32 2 2h4c3.26 9.41 3.26 9.41 4 14h2c2.63 5.37 3.61 10 4 16h2c0.33 4.62 0.66 9.24 1 14h2v2h3c-0.33 0.99-0.66 1.98-1 3-0.0732 2.61-0.0918 5.2-0.0625 7.82 0.00379 0.771 0.00757 1.54 0.0115 2.34 0.0163 3.29 0.0442 6.58 0.0715 9.88 0.178 23.4 0.178 23.4-4.02 35-0.486 1.55-0.963 3.1-1.43 4.65-2.67 8.75-5.48 17.1-9.57 25.4-0.743 1.76-0.743 1.76-1.5 3.56-1.5 2.44-1.5 2.44-3.94 3.25-3.66 1.7-3.96 4.16-5.39 7.8-1.64 3.34-3.96 5.51-6.69 7.98-1.61 1.36-1.61 1.36-2.49 3.41-3.06 0.625-3.06 0.625-6 1-0.144 0.846-0.289 1.69-0.438 2.56-2.69 5.93-8.32 9.61-14.2 12.2-3.44 1.21-6.85 2.25-10.4 3.19-0.018 0.606-0.0361 1.21-0.0547 1.84-0.945 2.16-0.945 2.16-4.08 3.58-1.33 0.421-2.66 0.824-3.99 1.21-0.652 0.204-1.3 0.407-1.98 0.617-1.96 0.607-3.93 1.18-5.9 1.76-1.22 0.369-2.45 0.737-3.71 1.12-3.38 0.907-6.51 1.28-9.98 1.54-2.42 0.279-2.42 0.279-5 1.35-3.66 1.1-6.7 1.27-10.5 1.3-0.678 0.0056-1.36 0.0112-2.06 0.017-2.18 0.0119-4.37 0.00567-6.55-0.00525-0.745-0.00182-1.49-0.00365-2.26-0.00552-18.3-0.0759-34.6-3.52-51.9-9.31-0.552-0.764-1.1-1.53-1.67-2.32-3.07-3.54-6.33-4.82-10.6-6.62-15.1-6.79-15.1-6.79-17.7-11.9-0.232-0.616-0.464-1.23-0.703-1.87-1.1-3.58-1.1-3.58-4.56-5.25-0.928-0.351-1.86-0.701-2.81-1.06v-2c-0.99-0.33-1.98-0.66-3-1-2.19-1.38-2.19-1.38-4-4-0.873-4.63-0.94-8.94 1.04-13.3 2.03-2.77 3.75-4.38 7.09-5.32 5.37-0.363 9.04 1.37 13.4 4.31 0.71 0.638 0.71 0.638 1.43 1.29v2h2c0.33 0.66 0.66 1.32 1 2 0.619 0.144 1.24 0.289 1.88 0.438 2.57 0.681 3.5 1.48 5.12 3.56 0.0928 0.619 0.186 1.24 0.281 1.88 1.04 3.08 2.87 4.02 5.53 5.81 1.31 0.903 1.31 0.903 2.64 1.82 2.34 1.37 3.96 1.88 6.54 2.49 1.92 0.931 3.81 1.91 5.69 2.94 0.973 0.525 1.95 1.05 2.95 1.59 2.36 1.47 2.36 1.47 3.36 3.47 12.5 5.6 25.1 5.78 38.5 5.81 2 0.0232 4 0.0486 6 0.0762 4.83 0.0621 9.67 0.095 14.5 0.111v-2c0.638-0.11 1.28-0.219 1.93-0.332 0.826-0.159 1.65-0.317 2.5-0.48 1.24-0.226 1.24-0.226 2.5-0.457 1.02-0.362 1.02-0.362 2.07-0.73 0.33-0.99 0.66-1.98 1-3h2v2c1.98-0.267 1.98-0.267 4-1 0.33-0.99 0.66-1.98 1-3 2.04-1.06 2.04-1.06 4.62-2 1.36-0.514 1.36-0.514 2.75-1.04 0.865-0.317 1.73-0.634 2.62-0.961 5.73-2.21 11.4-4.92 16-9 0.806-2.1 0.806-2.1 1-4h2c0.33 0.66 0.66 1.32 1 2l1.56-3.06c1.68-2.99 3.56-5.16 6.06-7.5 3.1-2.94 4.26-5.26 5.38-9.44 1.62-2.37 1.62-2.37 3-4v2c3.92-1.96 5.37-7.1 7-11 0.407-2.32 0.744-4.66 1-7 0.456-1.32 0.938-2.63 1.44-3.94 1.83-5.14 2.35-10.3 2.92-15.7 0.557-5.23 0.557-5.23 1.65-6.32 0.289-2.31 0.506-4.62 0.688-6.94 0.107-1.27 0.214-2.53 0.324-3.84 0.366-3.31 0.366-3.31-2.01-5.22-0.256-2.48-0.42-4.89-0.5-7.38-0.141-4.32-0.341-7.79-2.5-11.6-0.338-1.55-0.627-3.12-0.875-4.69-0.827-4.46-2.23-8.21-4.2-12.3-0.93-2.04-0.93-2.04-1.8-5.35-1.53-3.66-3.83-4.56-7.12-6.69-2.85-3.25-4.98-6.92-7.06-10.7-2.17-3.71-4.07-6.49-8.06-8.25-2.62-1.48-2.99-3.27-3.88-6.06h-2v-2c-0.706-0.28-1.41-0.559-2.14-0.848-2.89-1.16-5.75-2.37-8.61-3.59-4.32-1.8-8.63-3.45-13.1-4.87-3.09-0.987-6.16-2.07-9.22-3.14-2.09-0.687-2.09-0.687-4.95-0.551v-3c-7.09-1.09-14.1-1.18-21.2-1.19-1.15-0.0122-2.3-0.0245-3.49-0.0371-7.62-0.0129-14.8 0.722-22.3 2.22v2c-0.996 0.29-0.996 0.29-2.01 0.586-0.883 0.26-1.77 0.521-2.68 0.789-0.87 0.255-1.74 0.51-2.64 0.773-5.47 1.74-10.6 4.15-15.8 6.57-1.81 0.814-3.65 1.58-5.51 2.29-2.26 0.872-4.31 1.7-6.36 3-1.3 3-1.3 3-2 6-2.47 1.87-4.62 2.88-7.56 3.81-3.88 1.89-5.51 5.26-7.34 9.06-1.32 2.55-2.85 4.88-4.47 7.25-0.585 0.869-1.17 1.74-1.77 2.63-1.85 2.24-1.85 2.24-3.98 3.24-2.1 0.873-2.1 0.873-2.85 3.28-0.214 0.878-0.428 1.76-0.648 2.66-0.828 3.31-1.45 5.17-3.38 8.06h-2c-0.33 0.99-0.66 1.98-1 3-6.33 0.573-10.6 0.402-15.7-3.52-2.29-2.66-2.28-5.13-2.21-8.55 0.73-4.59 3.22-8.3 5.5-12.3 1.72-3.21 2.65-6.13 3.43-9.67h3c1.85-1.85 1.85-1.85 3.56-4.25 0.599-0.789 1.2-1.58 1.82-2.39 1.43-2.08 2.53-4.09 3.62-6.36 3.97-6.73 3.97-6.73 7.62-7.69 1.18-0.155 1.18-0.155 2.38-0.312 1.69-2 1.69-2 3-4h2v-2c0.66-0.33 1.32-0.66 2-1v-4c2.5-1.91 4.74-2.92 7.75-3.81 3.08-1.12 5.04-2.37 7.69-4.25 3.91-2.72 6.78-3.49 11.6-3.94 3.33-1.46 3.33-1.46 6-3-0.99-0.66-1.98-1.32-3-2 8.37-3.53 17-5.12 26-6 0.33-0.33 0.66-0.66 1-1 6.98-1.25 13.9-1.19 21-1.19zm92 42.2 1 2zm11 14 1 3zm1 3 1 2zm7 16 1 2z" fill="#F3F4F5"/>
<path transform="translate(936,686)" d="m0 0h18c0.0226 9.41 0.041 18.8 0.0518 28.2 0.00521 4.37 0.0123 8.74 0.0236 13.1 0.0109 4.22 0.0168 8.44 0.0194 12.7 0.00184 1.61 0.00544 3.22 0.0109 4.82 0.00729 2.26 0.00826 4.51 0.0078 6.77 0.00222 1.28 0.00444 2.57 0.00673 3.89-0.112 3.26-0.499 6.3-1.12 9.49h-2c-0.464 1.61-0.464 1.61-0.938 3.25-1.47 3.48-3.08 4.6-6.5 6.12-1.5 0.586-3.03 1.13-4.56 1.62-0.538 0.176-1.08 0.352-1.63 0.533-3.5 0.69-6.99 0.651-10.5 0.67-0.794 0.0057-1.59 0.0114-2.41 0.0173-1.68 0.00943-3.36 0.016-5.04 0.0198-2.55 0.00967-5.09 0.0407-7.64 0.0723-19 0.125-19 0.125-26.2-5.81-6.05-6.79-4.87-18.6-4.81-27.1-0.00773-1.07-0.0155-2.13-0.0234-3.23 0.0221-8.99 0.455-16.9 6.27-24.1 5.35-3.57 11.2-3.14 17.5-3.1 1.19 0.00212 1.19 0.00212 2.4 0.00429 2.51 0.00556 5.01 0.0181 7.52 0.0309 1.71 0.00502 3.41 0.00958 5.12 0.0137 4.17 0.0101 8.34 0.0297 12.5 0.0488v17c-3.42 1.14-5.97 1.08-9.57 1.03-1.93-0.0184-1.93-0.0184-3.91-0.0371-2.05-0.0249-4.1-0.0529-6.15-0.0862-1.98-0.0301-3.96-0.0474-5.94-0.0642-1.19-0.0168-2.37-0.0337-3.59-0.051-2.98-0.0897-2.98-0.0897-4.84 2.21-0.323 2.72-0.323 2.72-0.25 5.88-0.00516 1.05-0.0103 2.1-0.0156 3.18 0.361 5.36 1.38 10.6 2.27 15.9 11.5 0.33 23.1 0.66 35 1 0.33-24.4 0.66-48.8 1-74zm15 3v6h1v-6h-1zm0 7v12h1v-12h-1zm0 13 1 4zm0 6v7h1v-7h-1zm0 11v7h1v-7h-1zm-21-8v10h-11v1h12v-11h-1zm-34 29v10h1v-10h-1z" fill="#F9FAFB"/>
<path transform="translate(547 714)" d="m0 0c0.929-0.00333 1.86-0.00666 2.82-0.0101 1.96-0.00505 3.92-0.00741 5.88-0.00725 2.98-0.00219 5.97-0.0204 8.95-0.0393 1.91-0.00293 3.82-0.00492 5.73-0.00586 0.886-0.00719 1.77-0.0144 2.68-0.0218 11.8 0.0433 11.8 0.0433 16.2 4.09 0.7 1.04 0.7 1.04 1.41 2.1 0.482 0.69 0.964 1.38 1.46 2.09 2.4 4.07 2.27 7.53 2.23 12.2-0.00902 1.27-0.018 2.54-0.0273 3.86-0.0116 0.976-0.0232 1.95-0.0352 2.96-0.66 0.33-1.32 0.66-2 1-0.835 2.05-0.835 2.05-1.5 4.44-1.28 4.35-1.28 4.35-3.5 6.56-2.31 0.729-4.65 1.39-7 2-0.598 0.182-1.2 0.363-1.81 0.55-2.96 0.609-5.79 0.58-8.82 0.583-1.28 0.00129-2.56 0.00258-3.88 0.00391-0.664-0.00209-1.33-0.00419-2.01-0.00635-2.03-0.00536-4.06-3.86e-5 -6.1 0.00635-1.92-0.00193-1.92-0.00193-3.88-0.00391-1.17-0.00113-2.35-0.00226-3.56-0.00342-2.94-0.129-2.94-0.129-5.94-1.13-2.56-4.31-2.43-9.13-2-14 1.95-1.95 5.65-1.25 8.32-1.32 1.1-0.0312 1.1-0.0312 2.22-0.063 2.34-0.0656 4.69-0.124 7.03-0.183 1.59-0.0432 3.17-0.0868 4.76-0.131 3.89-0.107 7.79-0.209 11.7-0.307 0.33-2.31 0.66-4.62 1-7h-37c0.33 8.91 0.66 17.8 1 27 3.45 0.0909 3.45 0.0909 6.96 0.184 2.22 0.0617 4.43 0.125 6.65 0.189 1.55 0.0434 3.09 0.0851 4.64 0.125 2.22 0.0576 4.43 0.121 6.65 0.186 1.04 0.0251 1.04 0.0251 2.11 0.0506 4.88 0.152 4.88 0.152 5.99 1.27 0.0732 2.7 0.0924 5.37 0.0625 8.06-0.00451 0.759-0.00902 1.52-0.0137 2.3-0.0118 1.88-0.0298 3.76-0.0488 5.64-4.68 0.0498-9.35 0.0859-14 0.11-1.59 0.00999-3.18 0.0236-4.76 0.041-20.4 0.218-20.4 0.218-26.5-3.6-0.527-0.554-1.05-1.11-1.6-1.68-0.545-0.539-1.09-1.08-1.65-1.63-4.37-6.94-3.75-15.3-3.73-23.2 0.00317-2.01-0.0204-4.03-0.0457-6.04-0.00432-8.65 0.311-16 6.17-22.9 0.46-0.566 0.92-1.13 1.39-1.71 4.64-3.49 12-2.51 17.5-2.52zm45.3 18.2v8h1v-8h-1zm-54 2v5h1v-5h-1zm-1 5v17h1v-17h-1zm35 26 1 3z" fill="#F9FAFB"/>
<path transform="translate(747 714)" d="m0 0c3.02 0.0496 6.04 0.0615 9.06 0.0671 1.94 0.0141 3.87 0.0303 5.81 0.0488 1.34 0.00804 1.34 0.00804 2.71 0.0163 6.45 0.122 12 0.341 17 4.85 5.87 8.02 5.69 17.9 5.56 27.4 0.00322 1.21 0.00645 2.42 0.00977 3.66-0.0587 9.61-0.0587 9.61-2.32 13.5-0.627 1.52-1.25 3.04-1.88 4.56-2.59 5.77-2.59 5.77-6.12 7.44-5.67 1.64-10.8 2.33-16.7 2.37-1.21 0.0135-1.21 0.0135-2.44 0.0274-1.69 0.0144-3.38 0.0234-5.07 0.0271-2.55 0.0119-5.1 0.0611-7.65 0.112-9.36 0.0947-18.1-0.124-26.2-5.54-5.3-5.56-5.16-10.8-5.24-18.1-0.00807-0.775-0.0161-1.55-0.0245-2.35-0.0138-1.64-0.0245-3.27-0.0324-4.91-0.0115-1.66-0.032-3.33-0.0615-4.99-0.0428-2.42-0.0589-4.83-0.0691-7.25-0.0175-0.736-0.035-1.47-0.0531-2.23 0.0228-5.48 1.32-8.65 4.48-13.2 7.41-7.26 19.6-5.65 29.2-5.49zm-15.2 16.5c-0.0247 4.11-0.0428 8.22-0.0549 12.3-0.00504 1.4-0.0119 2.8-0.0205 4.2-0.0121 2.01-0.0173 4.02-0.0222 6.02-0.00524 1.21-0.0105 2.42-0.0159 3.67-0.204 2.68-0.204 2.68 1.11 3.78 2.51 0.101 4.99 0.14 7.5 0.133 1.13 0.00144 1.13 0.00144 2.28 0.0029 1.59 6.82e-4 3.18-0.00117 4.77-0.00534 2.44-0.00535 4.89-5.48e-5 7.33 0.00635 1.54-6.61e-4 3.08-0.00194 4.62-0.00391 0.735 0.00202 1.47 0.00405 2.23 0.00613 3.42 0.292 3.42 0.292 6.27-1.14 0.0876-2 0.107-4 0.0977-6-0.00322-1.21-0.00645-2.43-0.00977-3.68-0.00838-1.28-0.0168-2.56-0.0254-3.88-0.00451-1.28-0.00902-2.57-0.0137-3.89-0.0118-3.18-0.0283-6.37-0.0488-9.55-3.01-1.51-5.77-1.09-9.12-1.06-0.703 0.00379-1.41 0.00757-2.13 0.0115-2.25 0.0122-4.5 0.0309-6.75 0.051-2.96 0.0265-5.92 0.0466-8.88 0.0625-1.32 0.0116-2.63 0.0232-3.99 0.0352-3.13-0.0977-3.13-0.0977-5.13-1.1zm52 2v13h1v-13h-1zm-54 2v7h1v-7h-1zm0 22 1 2z" fill="#FAFBFC"/>
<path transform="translate(384 713)" d="m0 0c0.774-0.00333 1.55-0.00666 2.35-0.0101 1.63-0.00504 3.26-0.00741 4.89-0.00725 2.48-0.00219 4.95-0.0204 7.43-0.0393 1.59-0.00293 3.18-0.00492 4.77-0.00586 0.733-0.00719 1.47-0.0144 2.22-0.0218 5.45 0.0239 10.8 0.429 15.2 3.92 0.541 0.647 1.08 1.29 1.64 1.96 0.552 0.632 1.1 1.26 1.67 1.91 5.12 7.98 5.1 15.7 5.27 25 0.0342 1.3 0.0683 2.6 0.104 3.94 0.082 3.19 0.151 6.37 0.209 9.56-1.49 0.495-1.49 0.495-3 1-0.734 2.41-0.734 2.41-1.19 5.25-1.05 4.3-1.91 6.48-5.69 8.88-5.69 3.05-11.6 3.06-17.9 3.11-0.84 0.00807-1.68 0.0161-2.54 0.0245-1.77 0.0138-3.55 0.0245-5.32 0.0324-1.8 0.0115-3.61 0.032-5.41 0.0615-2.62 0.0429-5.24 0.0589-7.85 0.0691-0.796 0.0175-1.59 0.035-2.41 0.0531-7.36-0.0282-13.2-2.68-18.7-7.6-0.566-0.498-1.13-0.995-1.71-1.51-4.45-4.51-2.87-14.1-2.97-20.1-0.0416-1.87-0.103-3.73-0.185-5.59-0.665-15.4-0.665-15.4 2.94-20.9 2.52-2.31 4.89-4.1 7.87-5.79 0.965-0.568 0.965-0.568 1.95-1.15 5.19-2.16 10.7-2.01 16.3-2.02zm16.8 15.2v1h5v-1h-5zm-20 1v1h14v-1h-14zm-8 0v3h2c-0.33 0.99-0.66 1.98-1 3-0.0931 1.66-0.131 3.33-0.133 5-0.00129 0.969-0.00258 1.94-0.00391 2.94 0.00387 1.01 0.00773 2.02 0.0117 3.06-0.00387 1.01-0.00773 2.02-0.0117 3.06 0.00129 0.969 0.00258 1.94 0.00391 2.94 0.00113 0.887 0.00226 1.77 0.00342 2.69 0.0368 2.47 0.0368 2.47 1.13 5.31h35v-28c-3.48-1.16-6.19-1.11-9.86-1.1-0.662 0.00141-1.32 0.00283-2 0.00429-2.11 0.00559-4.22 0.0181-6.33 0.0309-1.43 0.00502-2.86 0.00958-4.29 0.0137-3.51 0.011-7.01 0.0283-10.5 0.0488l1-2h-5zm-1 4 1 2 1-2h-2z" fill="#FAFBFC"/>
<path transform="translate(814,714)" d="m0 0c2.08 2.08 1.14 6.59 1.14 9.45 0.0183 1.75 0.0379 3.5 0.0586 5.25 0.0289 2.77 0.0508 5.54 0.0513 8.31 0.00334 2.67 0.0379 5.33 0.0776 8-0.00707 0.824-0.0141 1.65-0.0214 2.5 0.0869 4.12 0.38 6.03 2.78 9.5 3.63 2.47 5.81 2.64 10.2 2.69 0.681 0.0151 1.36 0.0302 2.06 0.0458 2.16 0.0427 4.32 0.0517 6.48 0.0596 1.47 0.0232 2.94 0.0485 4.41 0.0762 3.59 0.0627 7.18 0.0952 10.8 0.111-0.0707-0.765-0.141-1.53-0.214-2.32-0.543-6.14-0.951-12.2-0.911-18.4 0.00193-0.747 0.00387-1.49 0.00586-2.27 0.0606-8.04 0.575-16 1.12-24 5.94 0.33 11.9 0.66 18 1 0.0742 7.88 0.129 15.8 0.165 23.7 0.0134 2.68 0.0343 5.36 0.0615 8.05 0.0364 3.85 0.0534 7.71 0.0667 11.6 0.0155 1.2 0.031 2.4 0.0469 3.63 2.27e-4 1.12 4.53e-4 2.24 6.87e-4 3.4 0.00999 1.48 0.00999 1.48 0.0202 2.98-0.552 4.17-2.43 6.79-5.36 9.73-1.89 0.274-1.89 0.274-4.23 0.306-1.31 0.024-1.31 0.024-2.65 0.0484-0.952 0.00536-1.9 0.0107-2.88 0.0163-0.985 0.00903-1.97 0.0181-2.98 0.0274-2.09 0.0145-4.19 0.0234-6.28 0.0271-3.16 0.0118-6.32 0.0608-9.48 0.112-24.4 0.196-24.4 0.196-33.4-7.05-9.28-10.4-7.39-26.8-7.25-39.8 0.0101-1.63 0.0192-3.25 0.0273-4.88 0.0218-3.94 0.0561-7.87 0.0977-11.8 1.92-0.179 3.85-0.352 5.77-0.523 1.07-0.0972 2.14-0.194 3.25-0.294 3.16-0.193 5.92-0.0108 8.99 0.818zm-1 4v35h1v-35h-1z" fill="#FBFCFD"/>
<path transform="translate(454 713)" d="m0 0c1.06-0.00241 2.11-0.00482 3.2-0.00731 2.24 9.8e-4 4.47 0.0144 6.71 0.0393 3.39 0.0341 6.78 0.0207 10.2 0.00122 2.18 0.00691 4.36 0.0166 6.54 0.0293 1.5-0.00744 1.5-0.00744 3.04-0.015 8.24 0.135 16.2 1.6 22.6 7.14 1.08 1.61 1.08 1.61 2.06 3.44 0.352 0.653 0.705 1.31 1.07 1.98 4.31 9.81 3.37 20.2 3.18 30.7-0.0201 1.97-0.0383 3.95-0.0547 5.92-0.0403 4.8-0.119 9.59-0.195 14.4h-18c-0.0374-2.76-0.0748-5.51-0.113-8.36-0.0462-2.68-0.0975-5.36-0.149-8.03-0.0332-1.86-0.0613-3.71-0.084-5.57-0.0336-2.67-0.0859-5.35-0.142-8.02-0.00639-0.827-0.0128-1.65-0.0194-2.51-0.116-4.58-0.378-7.89-3.49-11.5-3.24-1.46-6.79-1.11-10.3-1.1-1.81 0.00483-1.81 0.00483-3.65 0.00977-1.88 0.0126-1.88 0.0126-3.8 0.0254-1.9 0.00677-1.9 0.00677-3.85 0.0137-3.13 0.0118-6.27 0.0282-9.4 0.0488-0.0198 1.26-0.0396 2.51-0.0601 3.81-0.076 4.66-0.165 9.31-0.257 14-0.0383 2.02-0.0732 4.03-0.104 6.05-0.0456 2.9-0.104 5.79-0.164 8.69-0.0173 1.35-0.0173 1.35-0.035 2.74-0.0199 0.841-0.0397 1.68-0.0602 2.55-0.0133 0.739-0.0266 1.48-0.0404 2.24-0.278 1.96-0.278 1.96-2.28 4.96-2.63 0.221-5.01 0.282-7.62 0.188-0.706-0.0135-1.41-0.0271-2.14-0.041-1.75-0.0354-3.49-0.0892-5.23-0.146v-2h-2c-0.101-7.88-0.171-15.8-0.22-23.7-0.0179-2.68-0.0457-5.36-0.082-8.05-0.0485-3.86-0.0712-7.71-0.0889-11.6-0.0206-1.2-0.0413-2.4-0.0626-3.63-0.00123-4.55 0.0523-8.14 1.81-12.4 4.24-2.8 8.39-2.44 13.4-2.37zm2.28 16.6 1 4zm52 1 1 2zm-53 3v18h1v-18h-1zm55 10v8h1v-8h-1zm0 13v15h1v-15h-1z" fill="#FAFBFC"/>
<path transform="translate(626 714)" d="m0 0c1.12 0.00424 2.25 0.00849 3.41 0.0129 3.59 0.0168 7.17 0.0544 10.8 0.0926 2.43 0.015 4.87 0.0287 7.3 0.041 5.96 0.033 11.9 0.0832 17.9 0.146-0.162 0.776-0.325 1.55-0.492 2.35-0.48 2.5-0.642 4.73-0.633 7.27-0.00258 0.755-0.00516 1.51-0.00781 2.29 0.0561 2.28 0.0561 2.28 1.13 5.09-2.31 1.15-3.61 1.12-6.17 1.11-1.29-1.13e-4 -1.29-1.13e-4 -2.61-2.29e-4 -0.93-0.00516-1.86-0.0103-2.82-0.0156-0.952-0.00141-1.9-0.00283-2.88-0.00429-3.05-0.00561-6.09-0.0182-9.14-0.0309-2.06-0.00501-4.12-0.00958-6.19-0.0137-5.06-0.011-10.1-0.0283-15.2-0.0488-0.33-0.99-0.66-1.98-1-3v30c15.2 0.33 30.4 0.66 46 1-0.33 5.61-0.66 11.2-1 17-6.55 0.0992-13.1 0.172-19.6 0.22-2.23 0.0201-4.45 0.0473-6.67 0.082-3.21 0.0488-6.41 0.0713-9.62 0.0889-0.987 0.0206-1.97 0.0413-2.99 0.0626-7.86 0.00252-12.6-2.16-19.1-6.45v-2h-2c-0.33-0.66-0.66-1.32-1-2h-3v-43c0.99 0.33 1.98 0.66 3 1 0.375-0.543 0.75-1.09 1.14-1.64 0.512-0.715 1.02-1.43 1.55-2.17 0.499-0.708 0.998-1.42 1.51-2.14 5.3-6.01 10.9-5.44 18.4-5.34zm-9.64 20.3v5h1v-5h-1z" fill="#FBFCFD"/>
<path transform="translate(677,686)" d="m0 0h19v74h8c3 0.5 3 0.5 5 1 0.223 1.75 0.428 3.5 0.625 5.25 0.116 0.975 0.232 1.95 0.352 2.95 0.0251 2.99-0.298 4.35-1.98 6.8-4.41 2.94-7.93 1.87-13 1-11.4-2.54-11.4-2.54-15-7-3.51-9.43-3.4-19-3.29-28.9 0.00561-1.6 0.00987-3.19 0.0129-4.79 0.0113-4.16 0.0407-8.32 0.0741-12.5 0.0309-4.26 0.0444-8.53 0.0595-12.8 0.032-8.34 0.0847-16.7 0.146-25zm16 3v69h1v-69h-1z" fill="#F3F4F5"/>
<path transform="translate(132,1063)" d="m0 0h1335v1h-1335v-1z" fill="#000002"/>
<path transform="translate(975,887)" d="m0 0c0.33 1.32 0.66 2.64 1 4-0.482 0.398-0.964 0.797-1.46 1.21-0.632 0.53-1.26 1.06-1.91 1.61-0.626 0.522-1.25 1.04-1.9 1.58-1.95 1.69-1.95 1.69-3.73 4.61-0.825 0.309-1.65 0.619-2.5 0.938-2.61 0.786-2.61 0.786-3.38 2.88-1.51 2.94-3.65 4.15-6.37 5.94-1.8 1.2-1.8 1.2-3.26 2.84-2.37 2.23-5.41 2.53-8.5 3.41-1.77 1.52-1.77 1.52-3 3h-2c-0.0619 0.598-0.124 1.2-0.188 1.81-1.17 3.16-2.83 3.7-5.81 5.19-1.64 0.72-3.27 1.44-4.93 2.12-2.49 1.06-4.93 2.23-7.39 3.38-3.67 1.69-7.22 3.01-11.1 4.06-3.67 1.01-3.67 1.01-6.56 3.44-5.78 5.78-17 5.97-24.8 7.25-2.88 0.48-5.7 1.08-8.54 1.77-5.44 1.23-10.9 1.68-16.5 2.11-1.09 0.0842-2.18 0.168-3.3 0.255-15.2 1.09-30.8 1.44-45.9-0.38l-1-1c-10.5-2.23-23.3-4.71-34-3-2.3 1.42-2.3 1.42-4 3-0.312-2.31-0.312-2.31 0-5 4.36-3.82 9.81-4.13 15.4-3.9 5.96 0.539 5.96 0.539 8.48 1.91 2.93 1.35 5.56 1.38 8.77 1.55 6.18 0.34 6.18 0.34 8.38 1.44 9.31 1.52 18.9 1.19 28.3 1.19 2.69 0.00222 5.39 0.0205 8.08 0.0393 1.72 0.00293 3.43 0.00492 5.15 0.00586 0.803 0.00719 1.61 0.0144 2.43 0.0218 3.86-0.016 5.71-0.0586 9-2.25 3.58-0.379 7.15-0.506 10.8-0.656 3.39-0.105 3.39-0.105 6.25-2.34 1.99 0 3.98 0.00261 5.96 0.125 2.44-0.15 3.88-1.02 6.04-2.12 2.18-0.379 2.18-0.379 4.44-0.562 3.25-0.3 6.38-0.718 9.56-1.44-0.33-1.32-0.66-2.64-1-4 9.09-3.77 9.09-3.77 13.4-4.88 4.35-1.37 7.99-3.49 11.9-5.79 2.61-1.32 4.78-1.87 7.65-2.34 0.66-0.33 1.32-0.66 2-1-0.33-0.99-0.66-1.98-1-3 0.554-0.266 1.11-0.531 1.68-0.805 0.724-0.353 1.45-0.706 2.2-1.07 0.719-0.348 1.44-0.696 2.18-1.05 2.1-1.04 2.1-1.04 3.95-3.07 0.866-0.247 1.73-0.495 2.62-0.75 3.86-1.43 6.47-3.44 9.64-6.01 1.73-1.24 1.73-1.24 3.73-1.24-0.33-1.32-0.66-2.64-1-4 2.48-1.49 2.48-1.49 5-3v2c0.701-0.722 1.4-1.44 2.12-2.19 2.8-2.81 5.8-5.31 8.88-7.81z" fill="#000002"/>
<path transform="translate(1020,598)" d="m0 0c3.35 3.79 5.34 7.63 7.12 12.3 0.259 0.661 0.517 1.32 0.784 2 1.73 4.52 3.13 8.95 4.09 13.7 0.33-1.65 0.66-3.3 1-5 2 1 2 1 2.61 2.71 0.288 1.1 0.288 1.1 0.582 2.22 1.53 4.89 4.01 8.47 7.04 12.6 2.21 3.11 3.93 6.38 5.63 9.79 1.11 2.05 1.11 2.05 4.14 2.71v2c0.578 0.247 1.15 0.495 1.75 0.75 5.7 3.17 7.28 7.33 9.25 13.2 1.65 0.403 3.29 0.805 4.95 1.2 4.03 1.58 6.99 4.83 10.1 7.8-0.495 1.98-0.495 1.98-1 4 0.99 0.0206 1.98 0.0412 3 0.0625 4.46 0.618 6.71 3.08 9.89 6.09 4.73 4.15 9.91 6.83 16.1 7.85-0.495 1.49-0.495 1.49-1 3 1.87 0.989 3.75 1.97 5.62 2.94 1.57 0.818 1.57 0.818 3.16 1.65 3.15 1.38 5.83 1.93 9.21 2.41 5.54 2.6 7.52 6.18 10.1 11.5 0.933 2.68 1.05 4.72 0.883 7.54-2.23-2.61-3.97-4.94-5.44-8.06-1.87-3.51-3.15-4.88-6.56-6.94-1.7-0.473-3.41-0.907-5.12-1.31-9.78-2.44-17.5-9.03-25.4-14.9-4.12-3.03-8.08-5.64-12.7-7.72-2.07-0.992-2.07-0.992-3.69-2.06-0.688-2.56-0.688-2.56-1-5-2.44-1.72-2.44-1.72-5-3-0.33-0.66-0.66-1.32-1-2-1.23-0.557-2.49-1.07-3.75-1.56-5.93-2.82-7.69-7.99-10.3-13.7-0.485-0.866-0.485-0.866-0.98-1.75-1.32-0.365-2.66-0.694-4-1-5.39-3.16-6.49-7.26-8-13h-2c-0.495-2.48-0.495-2.48-1-5-1.48-0.495-1.48-0.495-3-1-1.02-1.99-2.02-3.99-3-6-2.06-2.31-2.06-2.31-4-4 0.33-0.99 0.66-1.98 1-3h-2c-2.69-4.99-4.87-10.1-6.81-15.4-0.44-1.2-0.879-2.41-1.33-3.65-0.855-2.98-0.855-2.98 0.145-4.98z" fill="#000002"/>
<path transform="translate(708,490)" d="m0 0c3.64 0.976 6.1 2.07 9.16 4.32 3.98 2.91 8.22 4.88 12.7 6.87 7.99 3.55 7.99 3.55 9.12 5.81 7.83 4.46 16.5 6.78 25.1 9.12 7.69 2.12 15.3 4.25 22.9 6.88 5.21 1.74 10.1 2.38 15.5 2.75 2.45 0.246 2.45 0.246 5.45 1.25 2.87 0.0972 5.71 0.14 8.57 0.133 1.26 0.00144 1.26 0.00144 2.54 0.0029 1.77 6.8e-4 3.53-0.00116 5.3-0.00534 2.71-0.00536 5.43-4.23e-5 8.14 0.00635 1.71-6.61e-4 3.43-0.00194 5.14-0.00391 1.22 0.00304 1.22 0.00304 2.47 0.00613 3.72 0.342 3.72 0.342 6.83-1.14 6.31-0.898 12.6-1.12 19-1v-3c0.594-0.11 1.19-0.219 1.8-0.332 10.8-1.31 10.8-1.31 20.2-5.67 2-0.225 3.99-0.448 5.99-0.621 2.31-0.301 2.31-0.301 5.01-2.38 2.33-0.667 4.67-1.33 7-2 0.99-0.66 1.98-1.32 3-2 2.04-0.414 2.04-0.414 4.19-0.625 1.89-0.186 1.89-0.186 3.81-0.375v2c-13 5.7-26.9 9.62-40.7 13-3.37 0.899-3.37 0.899-6.71 2.46-21.9 9.1-61.1 7.94-83.6 1.49-0.66-0.66-1.32-1.32-2-2-2.07-0.57-4.15-1.06-6.25-1.5-4.37-0.927-8.52-2.05-12.8-3.5-1.79-0.492-3.58-0.972-5.38-1.44-4.67-1.26-9.15-2.74-13.6-4.56-1.2-0.474-2.39-0.949-3.62-1.44-8.58-3.97-8.58-3.97-10.4-7.56-1.64-1.02-1.64-1.02-3.62-1.94-0.726-0.352-1.45-0.704-2.2-1.07-1.85-0.845-3.73-1.62-5.61-2.37-4.49-2.05-8.73-4.5-12.6-7.62v-2z" fill="#000002"/>
<path transform="translate(742 388)" d="m0 0c3.98 0.844 7.34 2.78 10.4 5.5v2h2c0.33 0.66 0.66 1.32 1 2 0.619 0.144 1.24 0.289 1.88 0.438 2.57 0.681 3.5 1.48 5.12 3.56 0.0928 0.619 0.186 1.24 0.281 1.88 1.04 3.08 2.87 4.02 5.53 5.81 0.873 0.602 1.75 1.2 2.64 1.82 2.34 1.37 3.96 1.88 6.54 2.49 1.92 0.931 3.81 1.91 5.69 2.94 0.973 0.525 1.95 1.05 2.95 1.59 2.36 1.47 2.36 1.47 3.36 3.47 12.5 5.6 25.1 5.78 38.5 5.81 2 0.0232 4 0.0486 6 0.0762 4.83 0.0621 9.67 0.095 14.5 0.111v-2c0.638-0.11 1.28-0.219 1.93-0.332 0.826-0.159 1.65-0.317 2.5-0.48 0.824-0.151 1.65-0.302 2.5-0.457 0.682-0.241 1.36-0.482 2.07-0.73 0.33-0.99 0.66-1.98 1-3h2v2c1.98-0.267 1.98-0.267 4-1 0.33-0.99 0.66-1.98 1-3 2.04-1.06 2.04-1.06 4.62-2 0.909-0.343 1.82-0.686 2.75-1.04 0.865-0.317 1.73-0.634 2.62-0.961 5.73-2.21 11.4-4.92 16-9 0.806-2.1 0.806-2.1 1-4h2c0.33 1.65 0.66 3.3 1 5-22.6 14-22.6 14-28 14-0.165 0.619-0.33 1.24-0.5 1.88-1.95 2.76-3.79 2.98-7.01 3.63-2.53 0.476-2.53 0.476-5.15 1.24-8.79 2.35-17.1 2.7-26.1 2.6-2.37-0.0237-4.74-0.0205-7.11-0.0139-10.1-0.0182-20.1-0.315-29.6-4.26-0.794-0.318-1.59-0.637-2.41-0.965-2.17-1.14-3.38-2.38-5.09-4.1-1.55-0.89-3.14-1.72-4.75-2.5-0.889-0.436-1.78-0.871-2.7-1.32-2.02-0.934-4.1-1.76-6.18-2.55-4.42-2.13-8.12-4.93-11.4-8.62-0.359-1.33-0.698-2.66-1-4-1.66-0.69-3.33-1.35-5-2-1.71-1.62-3.38-3.29-5-5-2.75-2.75-3.96-2.99-7.94-3.5-3.51 0.118-4.04 0.481-6.94 2.88-0.701 0.866-1.4 1.73-2.12 2.62-0.66 0.66-1.32 1.32-2 2 0.287-3.35 1.03-5.04 3-7.81 3.52-2.56 5.39-2.92 9.64-2.69z" fill="#000002"/>
<path transform="translate(384 713)" d="m0 0c0.774-0.00333 1.55-0.00666 2.35-0.0101 1.63-0.00504 3.26-0.00741 4.89-0.00725 2.48-0.00219 4.95-0.0204 7.43-0.0393 1.59-0.00293 3.18-0.00492 4.77-0.00586 0.733-0.00719 1.47-0.0144 2.22-0.0218 5.45 0.0239 10.8 0.429 15.2 3.92 0.541 0.647 1.08 1.29 1.64 1.96 0.552 0.632 1.1 1.26 1.67 1.91 5.12 7.98 5.1 15.7 5.27 25 0.0342 1.3 0.0683 2.6 0.104 3.94 0.082 3.19 0.151 6.37 0.209 9.56-1.49 0.495-1.49 0.495-3 1-0.747-4.25-1.07-8.34-1.14-12.7-0.0193-1.02-0.0387-2.05-0.0586-3.1-0.0338-2.12-0.0521-4.23-0.0547-6.35-0.162-6.79-1.12-11.7-5.75-16.9-7.52-4.96-16.5-4.22-25.1-4.24-2.08-0.00968-4.16-0.0407-6.25-0.0723-8.8-0.0698-16.9 0.269-24.5 5.19-3.13 3.13-5.67 6.44-8.12 10.1-0.621-2.92-0.847-4.19 0-7 8.37-9.63 15.7-12.1 28.2-12.2z" fill="#000002"/>
<path transform="translate(454 713)" d="m0 0c1.06-0.00241 2.11-0.00482 3.2-0.00731 2.24 9.8e-4 4.47 0.0144 6.71 0.0393 3.39 0.0341 6.78 0.0207 10.2 0.00122 2.18 0.00691 4.36 0.0166 6.54 0.0293 1.5-0.00744 1.5-0.00744 3.04-0.015 8.24 0.135 16.2 1.6 22.6 7.14 1.08 1.61 1.08 1.61 2.06 3.44 0.352 0.653 0.705 1.31 1.07 1.98 4.31 9.81 3.37 20.2 3.18 30.7-0.0201 1.97-0.0383 3.95-0.0547 5.92-0.0437 4.8-0.113 9.6-0.195 14.4h-2c-0.33-1.65-0.66-3.3-1-5h2v-15h-2v-5h2v-8h-2c0.0232-0.592 0.0464-1.18 0.0703-1.79 0.104-4.56 0.0993-8.08-2.07-12.2-0.536-1.18-1.07-2.35-1.62-3.56-2.56-4.3-5.74-5.85-10.4-7.44-8.14-1.85-16.1-2.29-24.4-2.19-1.09 0.00717-2.18 0.0143-3.3 0.0217-13.2 0.0555-13.2 0.0555-26.3 2.17-0.33 9.24-0.66 18.5-1 28h-1c-0.116-4.56-0.187-9.12-0.25-13.7-0.0335-1.29-0.067-2.59-0.102-3.92-0.0129-1.25-0.0258-2.49-0.0391-3.78-0.0209-1.15-0.0419-2.29-0.0635-3.48 1.33-9.21 7.36-8.87 15.2-8.77z" fill="#000002"/>
<path transform="translate(747 714)" d="m0 0c3.02 0.0496 6.04 0.0615 9.06 0.0671 1.94 0.0141 3.87 0.0303 5.81 0.0488 1.34 0.00804 1.34 0.00804 2.71 0.0163 6.45 0.122 12 0.341 17 4.85 5.87 8.02 5.69 17.9 5.56 27.4 0.00322 1.21 0.00645 2.42 0.00977 3.66-0.0593 9.71-0.0593 9.71-2.32 13.5-0.764-10.5-1.2-20.5 0-31h-2c-0.392-1.22-0.784-2.43-1.19-3.69-1.62-4.16-3.05-6.7-6.81-9.31-8.43-2.2-17-2.31-25.7-2.25-1.16-0.00773-2.32-0.0155-3.51-0.0234-8.47 0.0192-16.6 0.146-23.7 5.21-0.731 0.504-1.46 1.01-2.21 1.53-3.33 2.77-4.18 5.41-4.85 9.54h-1c-0.384-4.7-0.139-8.35 2.54-12.4 7.84-8.72 19.9-7.29 30.6-7.12z" fill="#000002"/>
<path transform="translate(626 714)" d="m0 0c1.12 0.00424 2.25 0.00849 3.41 0.0129 3.59 0.0168 7.17 0.0544 10.8 0.0926 2.43 0.015 4.87 0.0287 7.3 0.041 5.96 0.033 11.9 0.0832 17.9 0.146v4c-0.493-0.162-0.986-0.323-1.49-0.49-3.53-0.718-7.02-0.673-10.6-0.678-0.79-0.00333-1.58-0.00666-2.39-0.0101-1.67-0.00506-3.34-0.00741-5.02-0.00725-2.52-0.00217-5.05-0.0203-7.57-0.0393-14.9-0.666-14.9-0.666-28.4 4.47-5.75 6.33-6.01 12.1-6.19 20.3-0.0502 1.6-0.0502 1.6-0.101 3.23-0.217 7.4-0.341 14.8-0.211 22.2h-3v-43c0.99 0.33 1.98 0.66 3 1 0.375-0.543 0.75-1.09 1.14-1.64 0.512-0.715 1.02-1.43 1.55-2.17 0.499-0.708 0.998-1.42 1.51-2.14 5.3-6.01 10.9-5.44 18.4-5.34z" fill="#000002"/>
<path transform="translate(677,686)" d="m0 0h19v74h8c3 0.5 3 0.5 5 1 0.223 1.75 0.428 3.5 0.625 5.25 0.116 0.975 0.232 1.95 0.352 2.95 0.0234 2.8 0.0234 2.8-1.98 6.8v-9h-2c-0.33 0.66-0.66 1.32-1 2-0.165-0.598-0.33-1.2-0.5-1.81-2.04-2.98-4.23-3.33-7.62-4.28-2.55-1.23-2.87-2.26-3.88-4.91-0.234-3.05-0.234-3.05-0.211-6.66 0.00131-0.661 0.00263-1.32 0.00398-2 0.00647-2.18 0.0269-4.35 0.047-6.53 0.00627-1.51 0.0115-3.03 0.0158-4.54 0.0133-3.98 0.0377-7.96 0.0654-11.9 0.0432-6.38 0.0728-12.8 0.096-19.1 0.0102-2.23 0.0273-4.46 0.045-6.69 0.00683-1.36 0.0134-2.72 0.0198-4.09 0.00825-1.19 0.0165-2.38 0.025-3.61 0.0875-2.75 0.0875-2.75-1.11-4.8-1.6 0.114-3.21 0.242-4.81 0.375-0.893 0.0696-1.79 0.139-2.71 0.211-2.72 0.281-2.72 0.281-5.48 2.41-0.733 3.07-0.733 3.07-1 6h-1v-11z" fill="#000002"/>
<path transform="translate(814,714)" d="m0 0c2.08 2.08 1.14 6.59 1.14 9.45 0.0183 1.75 0.0379 3.5 0.0586 5.25 0.0289 2.77 0.0508 5.54 0.0513 8.31 0.00334 2.67 0.0379 5.33 0.0776 8-0.00707 0.824-0.0141 1.65-0.0214 2.5 0.0869 4.12 0.38 6.03 2.78 9.5 3.63 2.47 5.81 2.64 10.2 2.69 0.681 0.0151 1.36 0.0302 2.06 0.0458 2.16 0.0427 4.32 0.0517 6.48 0.0596 1.47 0.0232 2.94 0.0485 4.41 0.0762 3.59 0.0627 7.18 0.0952 10.8 0.111v3c-9.67 2.41-24.8 2.79-34-1-2.63-2.01-4.69-3.61-5.43-6.95-0.13-2.36-0.105-4.67-0.0219-7.03 0.00945-0.856 0.0189-1.71 0.0286-2.59 0.0345-2.72 0.103-5.45 0.174-8.17 0.0499-2.74 0.0928-5.48 0.132-8.21 0.0265-1.7 0.0608-3.4 0.103-5.1 0.0419-1.98 0.0336-3.95 0.015-5.93-1.65-1.65-3.55-1.17-5.81-1.19-0.873-0.0142-1.75-0.0284-2.64-0.043-2.9 0.107-2.9 0.107-6.54 2.23-0.33 9.9-0.66 19.8-1 30h-1v-35c13.8-1.15 13.8-1.15 18 0z" fill="#000002"/>
<path transform="translate(1128,316)" d="m0 0 2 1c-0.33 0.99-0.66 1.98-1 3-2.41 0.922-2.41 0.922-5.62 1.75-7.89 2.25-15 5.62-22.4 9.25-1.63 0.758-1.63 0.758-3.3 1.53-2.92 1.59-4.24 3.4-6.24 6-2.31 2.32-5.06 3.21-8.07 4.41-3.37 1.5-6.23 3.58-9.25 5.69-2.02 1.3-3.9 2.17-6.15 3-0.99 0.454-1.98 0.908-3 1.38-0.146 0.625-0.291 1.25-0.441 1.89-0.758 2.86-2.08 3.53-4.5 5.17-2.81 1.93-4.12 3.03-6.06 5.94h-2c-0.0412 0.619-0.0825 1.24-0.125 1.88-0.433 1.05-0.433 1.05-0.875 2.12-3.06 1.25-3.06 1.25-6 2-1.63-3.25-1.11-6.39-1-10 0.495-0.495 0.495-0.495 1-1 0.234-2.02 0.413-4.04 0.562-6.06 0.126-1.66 0.126-1.66 0.254-3.35 0.0606-0.855 0.121-1.71 0.184-2.59h1v16c4.23-1.69 6.71-3.06 10.2-5.81 0.86-0.666 1.72-1.33 2.61-2.02 2.35-2.01 2.35-2.01 3.21-4.77 1.3-3.14 2.6-3.57 5.68-4.89 3.32-1.51 6.23-3.03 9.12-5.25 3.02-2.13 4.64-2.73 8.19-3.25 0.33-0.66 0.66-1.32 1-2h3v-4c6.54-3.4 13.1-6.34 20-9 2.65-1.03 5.29-2.08 7.94-3.12 0.977-0.381 0.977-0.381 1.97-0.769 2.95-1.17 5.44-2.34 8.09-4.11z" fill="#000002"/>
<path transform="translate(904 714)" d="m0 0c1.19 0.00212 1.19 0.00212 2.4 0.00429 2.51 0.00556 5.01 0.0181 7.52 0.0309 1.71 0.00502 3.41 0.00958 5.12 0.0137 4.17 0.0101 8.34 0.0297 12.5 0.0488v17c-3.36 1.12-5.88 1.11-9.42 1.1-1.25-0.00322-2.51-0.00645-3.8-0.00977-1.31-0.00838-2.62-0.0168-3.97-0.0254-1.34-0.00502-2.67-0.00958-4.01-0.0137-3.27-0.0118-6.54-0.0283-9.81-0.0488 0.66-1.32 1.32-2.64 2-4 9.41-0.107 18.6 0.0624 28 1-0.495-5.45-0.495-5.45-1-11-11.6-2.89-26.4-1.81-38 1-2.24 1.49-2.24 1.49-4 3h-2c-0.66 1.32-1.32 2.64-2 4-0.33-0.99-0.66-1.98-1-3 2.04-3.57 3.56-5.71 7-8 4.8-1.12 9.56-1.13 14.5-1.1z" fill="#000002"/>
<path transform="translate(547 714)" d="m0 0c0.929-0.00333 1.86-0.00666 2.82-0.0101 1.96-0.00505 3.92-0.00741 5.88-0.00725 2.98-0.00219 5.97-0.0204 8.95-0.0393 1.91-0.00293 3.82-0.00492 5.73-0.00586 0.886-0.00719 1.77-0.0144 2.68-0.0218 11.8 0.0433 11.8 0.0433 16.2 4.09 0.7 1.04 0.7 1.04 1.41 2.1 0.482 0.69 0.964 1.38 1.46 2.09 2.4 4.07 2.27 7.53 2.23 12.2-0.00902 1.27-0.018 2.54-0.0273 3.86-0.0116 0.976-0.0232 1.95-0.0352 2.96-0.66 0.33-1.32 0.66-2 1 0.33-3.3 0.66-6.6 1-10h-2c-0.124-0.742-0.247-1.49-0.375-2.25-0.925-4.07-1.82-6.01-4.94-8.88-12.9-7.78-35.9-4.89-50.2-2.61-3.68 1.07-6.56 2.44-8.89 5.55-0.313 0.615-0.626 1.23-0.949 1.86-0.557 1.09-1.11 2.19-1.69 3.31-1-3-1-3 0.688-6.44 1.82-2.94 3.54-5.44 6.31-7.56 5.22-1.22 10.4-1.16 15.7-1.17z" fill="#000002"/>
<path transform="translate(618,733)" d="m0 0h1v26c15.2 0.33 30.4 0.66 46 1v5c-0.66-0.33-1.32-0.66-2-1-1.37-0.107-2.74-0.156-4.11-0.174-0.848-0.0135-1.7-0.027-2.57-0.0409-0.918-0.0104-1.84-0.0209-2.78-0.0316-1.93-0.0329-3.87-0.0661-5.8-0.0996-3.06-0.0474-6.11-0.0919-9.17-0.131-2.95-0.0397-5.89-0.0913-8.84-0.144-1.37-0.0126-1.37-0.0126-2.77-0.0255-0.854-0.0166-1.71-0.0333-2.59-0.0504-0.749-0.0103-1.5-0.0206-2.27-0.0312-2.44-0.316-4.04-0.924-6.1-2.27-0.941-2.82-1.12-4.53-1.1-7.45 0.00322-0.848 0.00645-1.7 0.00977-2.57 0.00838-0.881 0.0168-1.76 0.0254-2.67 0.00451-0.893 0.00902-1.79 0.0137-2.71 0.0118-2.2 0.0282-4.4 0.0488-6.61h2c-0.0309-1.21-0.0309-1.21-0.0625-2.44 0.0625-2.56 0.0625-2.56 1.06-3.56z" fill="#000002"/>
<path transform="translate(539,734)" d="m0 0h1c0.33 8.25 0.66 16.5 1 25 3.45 0.0909 3.45 0.0909 6.96 0.184 2.22 0.0617 4.43 0.125 6.65 0.189 1.55 0.0434 3.09 0.0851 4.64 0.125 2.22 0.0576 4.43 0.121 6.65 0.186 1.04 0.0251 1.04 0.0251 2.11 0.0506 4.88 0.152 4.88 0.152 5.99 1.27 0.0732 2.7 0.0924 5.37 0.0625 8.06-0.00451 0.759-0.00902 1.52-0.0137 2.3-0.0118 1.88-0.0298 3.76-0.0488 5.64h-2c-0.495-4.46-0.495-4.46-1-9h2v-3c-0.918-0.0198-1.84-0.0396-2.78-0.0601-3.41-0.0782-6.83-0.165-10.2-0.257-1.48-0.0382-2.95-0.0731-4.43-0.104-2.13-0.0458-4.25-0.104-6.37-0.164-1.28-0.0314-2.56-0.0628-3.87-0.0952-3.04-0.294-4.83-0.565-7.3-2.32-1.43-4.8-0.97-9.63-0.625-14.6 0.0438-0.742 0.0877-1.48 0.133-2.25 0.244-3.81 0.621-7.46 1.49-11.2z" fill="#000002"/>
<path transform="translate(852,713)" d="m0 0c5.94 0.33 11.9 0.66 18 1 0.0452 7.25 0.0819 14.5 0.104 21.7 0.0104 3.37 0.0246 6.73 0.0473 10.1 0.0242 3.87 0.0356 7.74 0.0444 11.6 0.0103 1.21 0.0206 2.42 0.0313 3.66 1.51e-4 1.12 3.02e-4 2.24 4.58e-4 3.4 0.00444 0.988 0.00888 1.98 0.0135 2.99-0.241 2.49-0.241 2.49-2.24 5.49-1.2-5.75-1.22-11.5-1.32-17.3-0.0208-1.08-0.0416-2.16-0.063-3.27-0.0652-3.43-0.124-6.87-0.183-10.3-0.0432-2.33-0.0868-4.67-0.131-7-0.107-5.71-0.209-11.4-0.307-17.1-3.17-1.58-6.54-1.29-10-1-2.41 0.863-2.41 0.863-4 2v-6z" fill="#000002"/>
<path transform="translate(936,686)" d="m0 0h18c0.0226 9.41 0.041 18.8 0.0518 28.2 0.00521 4.37 0.0123 8.74 0.0236 13.1 0.0109 4.22 0.0168 8.44 0.0194 12.7 0.00184 1.61 0.00544 3.22 0.0109 4.82 0.00729 2.26 0.00826 4.51 0.0078 6.77 0.00222 1.28 0.00444 2.57 0.00673 3.89-0.112 3.26-0.499 6.3-1.12 9.49h-1c-0.56-18.9-1.1-37.7-1.12-56.6-0.00451-1.27-0.00902-2.55-0.0137-3.86 0.00193-1.18 0.00387-2.36 0.00586-3.58 0.00169-1.53 0.00169-1.53 0.00342-3.09 0.135-3.04 0.57-5.92 1.13-8.91-1.92-0.0542-3.83-0.0929-5.75-0.125-1.07-0.0232-2.13-0.0464-3.23-0.0703-2.94 0.19-4.54 0.669-7.02 2.2v-5z" fill="#000002"/>
<path transform="translate(465 728)" d="m0 0c1.21-0.00129 2.41-0.00258 3.65-0.00391 1.27 0.00387 2.54 0.00773 3.85 0.0117 1.27-0.00387 2.53-0.00773 3.84-0.0117 1.21 0.00129 2.41 0.00258 3.66 0.00391 1.11 0.00113 2.23 0.00226 3.38 0.00342 2.69 0.129 2.69 0.129 4.69 1.13v2c-2.77 1.38-5.01 1.11-8.1 1.1-1.21-0.00322-2.42-0.00645-3.67-0.00977-1.27-0.00838-2.54-0.0168-3.85-0.0254-1.28-0.00451-2.56-0.00902-3.88-0.0137-3.17-0.0118-6.33-0.0283-9.5-0.0488-0.0198 1.26-0.0396 2.51-0.0601 3.81-0.076 4.66-0.165 9.31-0.257 14-0.0383 2.02-0.0732 4.03-0.104 6.05-0.0456 2.9-0.104 5.79-0.164 8.69-0.0116 0.903-0.0231 1.81-0.035 2.74-0.0298 1.26-0.0298 1.26-0.0602 2.55-0.0133 0.739-0.0266 1.48-0.0404 2.24-0.278 1.96-0.278 1.96-2.28 4.96-1.29-24-1.29-24-0.688-35.2 0.0347-0.718 0.0694-1.44 0.105-2.18 0.532-8.1 1.28-11.7 9.52-11.7z" fill="#000002"/>
<path transform="translate(374,733)" d="m0 0c1.33 2.66 1.11 4.69 1.1 7.66-0.0025 1.01-5e-3 2.02-0.00757 3.06-0.0091 1.29-0.0182 2.57-0.0276 3.9-0.0206 4.08-0.0412 8.17-0.0625 12.4h35v3c-4.91 0.099-9.82 0.172-14.7 0.22-1.67 0.0201-3.34 0.0474-5.01 0.082-2.4 0.0486-4.81 0.0712-7.21 0.0889-0.745 0.0206-1.49 0.0413-2.26 0.0626-3.38 0.00146-5.43-0.211-8.26-2.13-1.87-2.85-2.03-4.5-2.02-7.89-6.45e-4 -1.06-0.00129-2.12-0.00195-3.21 0.02-1.1 0.04-2.2 0.0605-3.34-0.00709-1.11-0.0142-2.22-0.0215-3.36 0.0483-6.11 0.0483-6.11 0.459-8.51 0.99-0.66 1.98-1.32 3-2z" fill="#000002"/>
<path transform="translate(1041,678)" d="m0 0c2.72 2.34 3.63 4.28 4.57 7.72 0.257 0.933 0.513 1.87 0.777 2.83 0.257 0.975 0.513 1.95 0.777 2.95 0.264 0.944 0.529 1.89 0.801 2.86 1.56 5.79 2.44 11.3 2.66 17.2 0.215 2.47 0.215 2.47 1.91 4.17 1.95 2.89 1.87 4.72 1.85 8.18 3e-3 1.2 6e-3 2.4 0.00909 3.64-0.0123 1.29-0.0247 2.59-0.0374 3.92-0.00306 1.35-0.00493 2.7-0.00568 4.04-0.0046 2.82-0.019 5.65-0.0412 8.47-0.0282 3.61-0.0392 7.21-0.0437 10.8-0.00517 3.45-0.0197 6.9-0.0344 10.4-0.00637 1.94-0.00637 1.94-0.0129 3.91-0.00961 1.21-0.0192 2.42-0.0291 3.66-0.00683 1.06-0.0137 2.12-0.0207 3.21-0.143 3.07-0.574 5.99-1.14 9.01h-1v-66c-0.99-0.33-1.98-0.66-3-1v-2h-2c0.33-3.63 0.66-7.26 1-11h-2c-0.121-0.964-0.242-1.93-0.367-2.92-0.168-1.26-0.335-2.53-0.508-3.83-0.162-1.25-0.325-2.51-0.492-3.8-0.552-3.01-1.24-4.81-2.63-7.45-0.414-2.36-0.414-2.36-0.625-4.75-0.0748-0.799-0.15-1.6-0.227-2.42-0.049-0.603-0.098-1.21-0.148-1.83z" fill="#000002"/>
<path transform="translate(731,734)" d="m0 0h1c0.754 3.35 1.12 6.43 1.1 9.86-0.0025 0.8-5e-3 1.6-0.00757 2.42-0.0137 1.5-0.0137 1.5-0.0276 3.03-0.0206 3.2-0.0412 6.39-0.0625 9.69h35v4c-5.09 0.0494-10.2 0.0857-15.3 0.11-1.73 0.0101-3.46 0.0237-5.2 0.041-2.49 0.0242-4.97 0.0356-7.46 0.0444-0.777 0.0103-1.55 0.0206-2.35 0.0313-1.91 4e-4 -3.81-0.104-5.72-0.227-0.66-0.66-1.32-1.32-2-2 0.375-2.62 0.375-2.62 1-5h-2v-15h2v-7z" fill="#000002"/>
<path transform="translate(902,538)" d="m0 0c0.33 0.66 0.66 1.32 1 2 2.24 0.735 2.24 0.735 4.94 1.31 4.04 1.03 7.51 2.29 11.2 4.25 3.14 1.67 5.81 2.77 9.31 3.38 5.79 1.05 10.6 4.09 15.6 7.06v3c0.629 0.231 1.26 0.461 1.91 0.699 5.66 2.16 11.4 4.42 16.1 8.3v2h5c0.33 0.99 0.66 1.98 1 3-6.23-0.135-9.52-2.55-14.4-6.23-2.42-1.67-4.65-2.8-7.37-3.89-3.95-1.62-6.27-3.72-9.19-6.88-3.81-2.83-7.82-3.91-12.3-5.19-3.47-1.05-6.79-2.38-10.1-3.77-1.77-0.73-3.56-1.43-5.35-2.12-0.906-0.347-1.81-0.694-2.75-1.05-0.826-0.312-1.65-0.624-2.5-0.945-1.93-0.93-1.93-0.93-2.93-2.93 0.33-0.66 0.66-1.32 1-2z" fill="#000002"/>
<path transform="translate(636 728)" d="m0 0c0.675-9.57e-4 1.35-0.00191 2.04-0.0029 1.43-6.82e-4 2.86 0.00117 4.3 0.00534 2.18 0.00531 4.36 7.3e-5 6.54-0.00635 1.39 6.61e-4 2.78 0.00194 4.18 0.00391 1.27 0.00113 2.53 0.00226 3.84 0.00342 2.94 0.112 5.55 0.445 8.4 1.13v2c-2.31 1.15-3.61 1.12-6.17 1.11-1.29-1.13e-4 -1.29-1.13e-4 -2.61-2.29e-4 -0.93-0.00516-1.86-0.0103-2.82-0.0156-0.952-0.00141-1.9-0.00283-2.88-0.00429-3.05-0.00561-6.09-0.0182-9.14-0.0309-2.06-0.00501-4.12-0.00958-6.19-0.0137-5.06-0.011-10.1-0.0283-15.2-0.0488v-2c2.05-0.228 4.1-0.456 6.15-0.684 8.46-1.45 8.46-1.45 9.55-1.45z" fill="#000002"/>
<path transform="translate(897,747)" d="m0 0h1c0.66 3.96 1.32 7.92 2 12 11.5 0.33 23.1 0.66 35 1v-5h1c0.125 5.75 0.125 5.75-1 8-4.12 0.199-8.25 0.382-12.4 0.562-1.16 0.0561-2.31 0.112-3.5 0.17-17.2 0.729-17.2 0.729-22.1-1.73v-15z" fill="#000002"/>
<path transform="translate(541,728)" d="m0 0c4.5-0.0494 9-0.0857 13.5-0.11 1.53-0.0101 3.06-0.0237 4.59-0.041 2.2-0.0243 4.4-0.0356 6.61-0.0444 0.684-0.0103 1.37-0.0206 2.07-0.0313 3.65-8.61e-4 5.09 0.141 8.22 2.23v2h-36c0.33-1.32 0.66-2.64 1-4z" fill="#000002"/>
<path transform="translate(1e3 851)" d="m0 0c0.688 1.62 0.688 1.62 1 4-1.44 3.25-1.44 3.25-3 6h-2v2c-1.65 0.33-3.3 0.66-5 1-0.433 1.89-0.433 1.89-0.875 3.81-0.698 3.04-1.33 4.49-3.12 7.19h-2c-0.247 0.722-0.495 1.44-0.75 2.19-1.4 3.15-2.85 5.34-5.25 7.81-2.75 0.812-2.75 0.812-5 1-0.33-1.32-0.66-2.64-1-4h2c0.33-0.66 0.66-1.32 1-2 0.66 0.33 1.32 0.66 2 1 0.387-0.592 0.773-1.18 1.17-1.79 2.29-3.48 4.55-6.86 7.2-10.1 1.93-2.08 1.93-2.08 1.62-5.12h2c0.289-0.784 0.577-1.57 0.875-2.38 1.12-2.62 1.12-2.62 3.12-4.62h2c1.39-1.96 2.73-3.96 4-6z" fill="#000002"/>
<path transform="translate(735,728)" d="m0 0c4.24-0.0247 8.47-0.0429 12.7-0.0549 1.44-0.00503 2.88-0.0119 4.32-0.0205 2.07-0.0121 4.14-0.0178 6.21-0.0222 1.25-0.00524 2.49-0.0105 3.78-0.0159 2.98 0.114 2.98 0.114 4.98 1.11-0.33 0.99-0.66 1.98-1 3h-32c-0.33-0.66-0.66-1.32-1-2h2v-2z" fill="#000002"/>
<path transform="translate(673,456)" d="m0 0c3.02 1.12 4.65 2.61 6.62 5.06 2.05 2.95 2.05 2.95 4.38 3.94v2h2c0.392 0.722 0.784 1.44 1.19 2.19 2.08 3.22 4.2 4.67 7.39 6.7 0.706 0.551 0.706 0.551 1.43 1.11v2c0.516 0.248 1.03 0.495 1.56 0.75 4.28 2.2 8.43 4.58 12.4 7.25v2c-4.54-1.3-7.8-3.04-11.6-5.88-0.909-0.678-1.82-1.36-2.75-2.05-5.99-4.62-11.1-9.16-15.7-15.1-2.69-3.45-2.69-3.45-5.68-6.62-1.25-1.32-1.25-1.32-1.25-3.32z" fill="#000002"/>
<path transform="translate(945,486)" d="m0 0c2.12 0.938 2.12 0.938 4 2-1.35 4.06-3.26 4.6-6.94 6.69-1.08 0.623-2.16 1.25-3.28 1.89-2.79 1.43-2.79 1.43-4.79 1.43-0.33 0.99-0.66 1.98-1 3-1.82 0.809-1.82 0.809-4.12 1.44-4.42 1.33-7.96 3.14-11.9 5.56-0.66-0.99-1.32-1.98-2-3 1.91-1.01 3.83-2.01 5.75-3 1.6-0.835 1.6-0.835 3.23-1.69 3.02-1.31 3.02-1.31 7.02-1.31 1.46-1.29 1.46-1.29 3-3 3.64-2.69 6.47-4.47 11-5v-2h-2v-2l2-1z" fill="#000002"/>
<path transform="translate(1046,349)" d="m0 0h1v16c3.71-1.48 6.67-2.91 10-5-0.812 2.44-0.812 2.44-2 5-0.99 0.33-1.98 0.66-3 1-0.155 0.959-0.155 0.959-0.312 1.94-0.227 0.681-0.454 1.36-0.688 2.06-3.06 1.25-3.06 1.25-6 2-1.63-3.25-1.11-6.39-1-10 0.33-0.33 0.66-0.66 1-1 0.234-2.02 0.413-4.04 0.562-6.06 0.0838-1.1 0.168-2.21 0.254-3.35 0.0606-0.855 0.121-1.71 0.184-2.59z" fill="#131415"/>
<path transform="translate(576,737)" d="m0 0c0.562 1.94 0.562 1.94 1 4-1.84 1.84-4.8 1.17-7.27 1.21-1.92 0.0425-1.92 0.0425-3.89 0.0859-2.05 0.0411-4.09 0.078-6.14 0.104-1.97 0.0277-3.94 0.0747-5.92 0.122-1.77 0.0297-1.77 0.0297-3.58 0.0601-3.46 0.448-5.39 1.42-8.21 3.42-0.0427-1.67-0.0406-3.33 0-5 1.95-1.95 5.65-1.25 8.32-1.32 0.731-0.0208 1.46-0.0416 2.22-0.063 2.34-0.0656 4.69-0.124 7.03-0.183 1.59-0.0432 3.17-0.0868 4.76-0.131 3.89-0.107 7.79-0.209 11.7-0.307v-2z" fill="#000002"/>
<path transform="translate(651,423)" d="m0 0c0.33 0.66 0.66 1.32 1 2 0.99-0.33 1.98-0.66 3-1 4.03 5.96 7.04 11.1 9 18 1.75 2.88 3.59 5.64 6 8h3c0.33 1.65 0.66 3.3 1 5-3.15-0.302-4.08-1.08-6.32-3.4-0.78-0.982-1.56-1.96-2.36-2.98-1.18-1.47-1.18-1.47-2.39-2.96-1.94-2.69-2.83-4.55-3.11-7.85-1.23-4.27-3.9-7.5-6.81-10.8-0.66-0.33-1.32-0.66-2-1v-3z" fill="#000002"/>
<path transform="translate(639,391)" d="m0 0c4.02 4.02 5.11 9.36 6.32 14.8 1.13 3.77 2.97 7.23 4.75 10.7 1.01 2.73 0.956 3.84-0.0742 6.52-4.4-7.19-8-14.4-8-23h-2c-2.12-6.75-2.12-6.75-1-9z" fill="#000002"/>
<path transform="translate(378,728)" d="m0 0c0.99 0.33 1.98 0.66 3 1 2.39 0.226 4.79 0.408 7.19 0.562 1.91 0.126 1.91 0.126 3.86 0.254 0.976 0.0606 1.95 0.121 2.96 0.184v-2c1.77 0.141 3.54 0.288 5.31 0.438 0.986 0.0812 1.97 0.162 2.99 0.246 2.7 0.316 2.7 0.316 5.7 1.32v2c-4.5 0.0494-9 0.0857-13.5 0.11-1.53 0.0101-3.06 0.0237-4.59 0.041-2.2 0.0243-4.4 0.0356-6.61 0.0444-0.684 0.0103-1.37 0.0206-2.07 0.0313-3.65 8.61e-4 -5.09-0.141-8.22-2.23h4v-2z" fill="#000002"/>
<path transform="translate(949,306)" d="m0 0h1c0.0254 6.32 0.0429 12.6 0.0549 19 0.00502 2.15 0.0118 4.3 0.0205 6.45 0.0121 3.09 0.0178 6.18 0.0222 9.27 0.00516 0.959 0.0103 1.92 0.0156 2.9 7.55e-5 0.901 1.51e-4 1.8 2.29e-4 2.73 0.00222 0.788 0.00444 1.58 0.00673 2.39-0.131 2.51-0.572 4.86-1.12 7.31-0.99-0.33-1.98-0.66-3-1 0.33-0.66 0.66-1.32 1-2 1.3-9.66 1.34-19.4 1.56-29.1 0.0433-1.74 0.0869-3.47 0.131-5.21 0.106-4.22 0.208-8.44 0.307-12.7z" fill="#000002"/>
<path transform="translate(852,108)" d="m0 0c7.01-0.471 13.5 1.26 20.2 2.88 1.18 0.269 2.37 0.539 3.59 0.816 8.77 2.05 8.77 2.05 12.2 4.31-6.13-0.59-12-1.54-18-2.94-0.742-0.17-1.49-0.339-2.25-0.514-1.49-0.34-2.98-0.681-4.46-1.02-3.76-0.861-7.52-1.69-11.3-2.52v-1z" fill="#000002"/>
<path transform="translate(1047,307)" d="m0 0 2 1c0.0494 5.52 0.0857 11 0.11 16.6 0.0101 1.88 0.0237 3.76 0.041 5.63 0.0242 2.7 0.0356 5.39 0.0444 8.09 0.0103 0.843 0.0206 1.69 0.0313 2.55 3.98e-4 2.06-0.104 4.12-0.227 6.17-0.66 0.66-1.32 1.32-2 2v-42z" fill="#000002"/>
<path transform="translate(628,307)" d="m0 0h1v49h-1v-49z" fill="#000002"/>
<path transform="translate(980,583)" d="m0 0h2v2c0.598 0.268 1.2 0.536 1.81 0.812 3.02 1.64 4.72 3.19 6.19 6.31 0.912 2.23 0.912 2.23 4 2.88 0.33 1.65 0.66 3.3 1 5-4.73-2.8-7.02-5.27-10-10-0.99-0.66-1.98-1.32-3-2v-2c-0.99-0.33-1.98-0.66-3-1 0.33-0.66 0.66-1.32 1-2z" fill="#000002"/>
<path transform="translate(1006,504)" d="m0 0h1v46h-1v-46z" fill="#000002"/>
<path transform="translate(978,456)" d="m0 0c0.66 0.66 1.32 1.32 2 2 0.99-0.66 1.98-1.32 3-2-0.188 1.81-0.188 1.81-1 4-1.64 1.04-3.31 2.03-5 3-3.47 2.85-6.82 5.82-10 9 0.52-4.07 2.57-5.82 5.5-8.56 3.52-3.21 3.52-3.21 5.5-7.44z" fill="#000002"/>
<path transform="translate(963,473)" d="m0 0 4 2c-0.763 0.495-1.53 0.99-2.31 1.5-5.01 3.33-9.83 6.94-14.7 10.5v-3c1.83-1.68 1.83-1.68 4.25-3.44 3.19-2.33 6.02-4.71 8.75-7.56z" fill="#000002"/>
<path transform="translate(885,221)" d="m0 0c1.34 0.321 2.67 0.659 4 1 1.13 0.268 2.27 0.536 3.44 0.812 3.68 1.23 5.66 2.68 8.56 5.19 1.31 0.709 2.64 1.39 4 2-0.33 1.32-0.66 2.64-1 4h-2c-0.309-0.866-0.309-0.866-0.625-1.75-2.54-4.16-6.75-6.06-11.1-7.88-3.25-1.38-3.25-1.38-5.25-3.38z" fill="#000002"/>
<path transform="translate(968,573)" d="m0 0h2v3c1.99 1.35 3.99 2.69 6 4 0.33 0.99 0.66 1.98 1 3 0.66 0.33 1.32 0.66 2 1-5.35-0.324-8.28-3.5-12-7 0.33-1.32 0.66-2.64 1-4z" fill="#000002"/>
<path transform="translate(1010,568)" d="m0 0c0.66 0.33 1.32 0.66 2 1 0.468 2.34 0.827 4.7 1.12 7.06 0.168 1.29 0.335 2.58 0.508 3.91 0.121 0.999 0.242 2 0.367 3.03 0.99-0.33 1.98-0.66 3-1-0.33 0.99-0.66 1.98-1 3-1.32-0.33-2.64-0.66-4-1-1.33-3.98-1.07-7.85-1-12h-2c0.33-1.32 0.66-2.64 1-4z" fill="#000002"/>
<path transform="translate(918,370)" d="m0 0c0.33 0.66 0.66 1.32 1 2-1 2.75-1 2.75-2.56 6-0.496 1.07-0.993 2.14-1.5 3.25-2.34 3.32-4.04 3.88-7.93 4.75 1.07-2.92 1.78-4.78 4-7v2c2.81-1.41 3.27-3.26 4.62-6.06 0.446-0.919 0.892-1.84 1.35-2.79 0.338-0.71 0.675-1.42 1.02-2.15z" fill="#000002"/>
<path transform="translate(632,372)" d="m0 0c2 2 2 2 2.44 4.5 0.339 2.85 0.339 2.85 3.56 4.5 0.688 3.62 0.688 3.62 1 7h-2v-4c-0.639-0.206-1.28-0.413-1.94-0.625-2.06-1.38-2.06-1.38-2.81-4.25-0.25-3.12-0.25-3.12-0.25-7.12z" fill="#000002"/>
<path transform="translate(1011,834)" d="m0 0c0.934 3.01 1.04 3.87 0 7h-2c-0.99 2.97-1.98 5.94-3 9h-3c1.43-3.79 3.16-7.27 5.12-10.8 0.539-0.976 1.08-1.95 1.63-2.96 0.41-0.736 0.82-1.47 1.24-2.23z" fill="#000002"/>
<path transform="translate(1007,551)" d="m0 0c3.13 3.39 3.34 5.71 3.19 10.2-0.0406 1.62-0.0406 1.62-0.082 3.27-0.0348 0.82-0.0696 1.64-0.105 2.48-0.99-0.66-1.98-1.32-3-2 0.33-3.3 0.66-6.6 1-10h-2c0.33-1.32 0.66-2.64 1-4z" fill="#000002"/>
<path transform="translate(954,148)" d="m0 0c7.58 2.84 13.2 5.35 18 12-3.45-1.68-6.79-3.53-10.1-5.44-1.05-0.597-2.11-1.19-3.2-1.81-2.68-1.75-2.68-1.75-4.68-4.75z" fill="#000002"/>
<path transform="translate(996,429)" d="m0 0c0.33 0.66 0.66 1.32 1 2 0.99-0.33 1.98-0.66 3-1-0.25 1.88-0.25 1.88-1 4-0.619 0.268-1.24 0.536-1.88 0.812-3.34 1.87-3.82 4.66-5.12 8.19-1-2-1-2-0.25-5.31 1.11-3.27 2.34-5.83 4.25-8.69z" fill="#000002"/>
<path transform="translate(796,109)" d="m0 0c-6.18 3.27-13 5.56-20 5 5.58-4.69 12.9-5.38 20-5z" fill="#000002"/>
<path transform="translate(1017,823)" d="m0 0c1 3 1 3-0.312 5.69-0.557 0.763-1.11 1.53-1.69 2.31h-2c-0.33 0.66-0.66 1.32-1 2 0.33-2.64 0.66-5.28 1-8h3c0.33-0.66 0.66-1.32 1-2z" fill="#000002"/>
<path transform="translate(906,389)" d="m0 0c0 3.78-0.997 4.46-3.5 7.19-0.65 0.715-1.3 1.43-1.97 2.17-0.505 0.543-1.01 1.09-1.53 1.64l-2-1c1.12-1.29 2.25-2.58 3.38-3.88 0.626-0.719 1.25-1.44 1.9-2.18 1.2-1.35 2.45-2.67 3.73-3.95z" fill="#000002"/>
<path transform="translate(972,160)" d="m0 0c3.76 1.5 3.76 1.5 4.94 3.94 1.43 2.78 3.34 3.63 6.06 5.06-0.99 0.495-0.99 0.495-2 1-4.04-1.92-6.47-4.34-9-8v-2z" fill="#000002"/>
<path transform="translate(812,131)" d="m0 0v2c-4.39 0.857-8.53 1.09-13 1 3.49-3.49 8.27-3.14 13-3z" fill="#000002"/>
<path transform="translate(629,356)" d="m0 0 2 1c0.312 2.55 0.513 5 0.625 7.56 0.0387 0.711 0.0773 1.42 0.117 2.15 0.0945 1.76 0.177 3.52 0.258 5.28-2.35-3.52-2.38-5.51-2.62-9.69-0.0748-1.18-0.15-2.36-0.227-3.57-0.049-0.904-0.098-1.81-0.148-2.74z" fill="#000002"/>
<path transform="translate(630,293)" d="m0 0h1v9c-0.99 0.495-0.99 0.495-2 1-0.0269-1.48-0.0463-2.96-0.0625-4.44-0.0116-0.824-0.0232-1.65-0.0352-2.5 0.0977-2.07 0.0977-2.07 1.1-3.07z" fill="#000002"/>
<path transform="translate(1009,486)" d="m0 0h1c0.054 1.62 0.0928 3.25 0.125 4.88 0.0232 0.905 0.0464 1.81 0.0703 2.74-0.195 2.38-0.195 2.38-2.2 4.38-0.0816-4.16 0.0175-7.95 1-12z" fill="#000002"/>
<path transform="translate(818,130)" d="m0 0h17v1h-17v-1z" fill="#000002"/>
<path transform="translate(1151,319)" d="m0 0c2.79 4.18 1.8 6.15 1 11h-1v-11z" fill="#000002"/>
<path transform="translate(655,229)" d="m0 0c1.03 2.79 1.05 3.87 0.0625 6.75-0.351 0.743-0.701 1.49-1.06 2.25h-1v-7h2v-2z" fill="#000002"/>
<path transform="translate(748,145)" d="m0 0 4 1c-0.33 0.99-0.66 1.98-1 3h-4c0.33-1.32 0.66-2.64 1-4z" fill="#000002"/>
<path transform="translate(1038,259)" d="m0 0c2.57 3.85 2.55 6.43 3 11-2.4-2.4-2.34-3.33-2.62-6.62-0.0748-0.817-0.15-1.63-0.227-2.48-0.049-0.626-0.098-1.25-0.148-1.9z" fill="#000002"/>
<path transform="translate(814,972)" d="m0 0h11v1h-11v-1z" fill="#000002"/>
<path transform="translate(842,972)" d="m0 0h10v1h-10v-1z" fill="#000002"/>
<path transform="translate(1082,367)" d="m0 0 3 3c-1.32 0.33-2.64 0.66-4 1 0.33-1.32 0.66-2.64 1-4z" fill="#000002"/>
<path transform="translate(1042,275)" d="m0 0c2.15 3.23 2.2 4.28 2 8-2.15-3.23-2.2-4.28-2-8z" fill="#000002"/>
<path transform="translate(762,142)" d="m0 0c-2.35 1.43-3.48 2.09-6.25 1.62-0.577-0.206-1.15-0.412-1.75-0.625 5.75-2.12 5.75-2.12 8-1z" fill="#000002"/>
<path transform="translate(853,133)" d="m0 0h10v1h-10v-1z" fill="#000002"/>
<path transform="translate(882,557)" d="m0 0c2.97 0.495 2.97 0.495 6 1-0.66 0.66-1.32 1.32-2 2-2.62-0.375-2.62-0.375-5-1 0.33-0.66 0.66-1.32 1-2z" fill="#000002"/>
<path transform="translate(1015,468)" d="m0 0h2v5l-2 1v-6z" fill="#000002"/>
<path transform="translate(1045,289)" d="m0 0c1.06 1.81 1.06 1.81 2 4-0.33 0.99-0.66 1.98-1 3h-1v-7z" fill="#000002"/>
<path transform="translate(874,136)" d="m0 0c2.64 0.33 5.28 0.66 8 1v1c-2.88 0.125-2.88 0.125-6 0-0.66-0.66-1.32-1.32-2-2z" fill="#000002"/>
<path transform="translate(942,368)" d="m0 0h1c-0.33 2.31-0.66 4.62-1 7-1.04-3.13-0.934-3.99 0-7z" fill="#000002"/>
<path transform="translate(846,132)" d="m0 0h7c-1.98 0.99-1.98 0.99-4 2-0.99-0.66-1.98-1.32-3-2z" fill="#000002"/>
<path transform="translate(1136,717)" d="m0 0 2 1c-0.33 1.32-0.66 2.64-1 4-0.33-1.65-0.66-3.3-1-5z" fill="#000002"/>
<path transform="translate(689,468)" d="m0 0 2 1v3h-2v-4z" fill="#000002"/>
<path transform="translate(641,258)" d="m0 0c0.33 0.66 0.66 1.32 1 2-0.938 2.12-0.938 2.12-2 4-0.0427-1.67-0.0406-3.33 0-5 0.33-0.33 0.66-0.66 1-1z" fill="#000002"/>
<path transform="translate(726,157)" d="m0 0c0.66 0.33 1.32 0.66 2 1-1.65 0.66-3.3 1.32-5 2 0.99-0.99 1.98-1.98 3-3z" fill="#000002"/>
<path transform="translate(960,506)" d="m0 0c0.33 0.66 0.66 1.32 1 2-1.32 0.33-2.64 0.66-4 1l3-3z" fill="#000002"/>
<path transform="translate(739,505)" d="m0 0c1.32 0.33 2.64 0.66 4 1h-4v-1z" fill="#000002"/>
<path transform="translate(908,420)" d="m0 0c0.33 0.99 0.66 1.98 1 3-0.99 0.495-0.99 0.495-2 1 0.33-1.32 0.66-2.64 1-4z" fill="#000002"/>
<path transform="translate(1084,367)" d="m0 0h4c-0.33 0.66-0.66 1.32-1 2-0.99-0.33-1.98-0.66-3-1v-1z" fill="#292A2B"/>
<path transform="translate(678,196)" d="m0 0h2v3h-2v-3z" fill="#000002"/>
<path transform="translate(696,178)" d="m0 0h2v3h-2v-3z" fill="#000002"/>
<path transform="translate(774,137)" d="m0 0h5c-1.98 0.99-1.98 0.99-4 2-0.33-0.66-0.66-1.32-1-2z" fill="#000002"/>
<path transform="translate(783,135)" d="m0 0h6v1h-6v-1z" fill="#000002"/>
<path transform="translate(791,133)" d="m0 0h6v1h-6v-1z" fill="#000002"/>
<path transform="translate(975,917)" d="m0 0c0.33 0.99 0.66 1.98 1 3h-2c0.33-0.99 0.66-1.98 1-3z" fill="#000002"/>
<path transform="translate(1081,711)" d="m0 0c0.99 0.33 1.98 0.66 3 1-0.99 0.33-1.98 0.66-3 1v-2z" fill="#000002"/>
<path transform="translate(924,575)" d="m0 0h5v1h-5v-1z" fill="#000002"/>
<path transform="translate(1047,403)" d="m0 0c0.33 0.99 0.66 1.98 1 3-0.99 0.495-0.99 0.495-2 1 0.33-1.32 0.66-2.64 1-4z" fill="#000002"/>
<path transform="translate(944,293)" d="m0 0h1v5h-1v-5z" fill="#000002"/>
<path transform="translate(751,262)" d="m0 0c0.33 1.32 0.66 2.64 1 4-0.66-0.99-1.32-1.98-2-3 0.33-0.33 0.66-0.66 1-1z" fill="#000002"/>
<path transform="translate(670,206)" d="m0 0c0.99 0.33 1.98 0.66 3 1-0.66 0.66-1.32 1.32-2 2-0.33-0.99-0.66-1.98-1-3z" fill="#000002"/>
<path transform="translate(978,200)" d="m0 0c0.66 1.32 1.32 2.64 2 4-0.66-0.33-1.32-0.66-2-1v-3z" fill="#000002"/>
<path transform="translate(944,170)" d="m0 0 4 1-2 1c-0.66-0.66-1.32-1.32-2-2z" fill="#000002"/>
<path transform="translate(733,153)" d="m0 0c0.99 0.33 1.98 0.66 3 1-1.32 0.33-2.64 0.66-4 1 0.33-0.66 0.66-1.32 1-2z" fill="#000002"/>
<path transform="translate(866,135)" d="m0 0h5v1h-5v-1z" fill="#000002"/>
<path transform="translate(994,900)" d="m0 0v3z" fill="#000002"/>
<path transform="translate(1050,795)" d="m0 0 1 4z" fill="#000002"/>
<path transform="translate(1113,729)" d="m0 0h3c-0.33 0.66-0.66 1.32-1 2-0.66-0.66-1.32-1.32-2-2z" fill="#000002"/>
<path transform="translate(755,540)" d="m0 0 4 1z" fill="#000002"/>
<path transform="translate(1011,478)" d="m0 0 1 4z" fill="#000002"/>
<path transform="translate(1025,439)" d="m0 0 1 4z" fill="#000002"/>
<path transform="translate(883,438)" d="m0 0v3z" fill="#000002"/>
<path transform="translate(618,408)" d="m0 0h2c-0.33 0.99-0.66 1.98-1 3-0.33-0.99-0.66-1.98-1-3z" fill="#000002"/>
<path transform="translate(1063,385)" d="m0 0v3z" fill="#000002"/>
<path transform="translate(739,282)" d="m0 0c0.66 0.66 1.32 1.32 2 2l-2 1v-3z" fill="#000002"/>
<path transform="translate(1037,255)" d="m0 0 1 4z" fill="#000002"/>
<path transform="translate(1026,230)" d="m0 0 1 4z" fill="#000002"/>
<path transform="translate(802,231)" d="m0 0h2v2h-2v-2z" fill="#000002"/>
<path transform="translate(664,213)" d="m0 0v3z" fill="#000002"/>
<path transform="translate(974,197)" d="m0 0h2v2h-2v-2z" fill="#000002"/>
<path transform="translate(700,174)" d="m0 0c0.66 0.33 1.32 0.66 2 1h-3c0.33-0.33 0.66-0.66 1-1z" fill="#000002"/>
<path transform="translate(706,171)" d="m0 0h2v2h-2v-2z" fill="#000002"/>
<path transform="translate(719,160)" d="m0 0 4 1z" fill="#000002"/>
<path transform="translate(926,157)" d="m0 0c0.99 0.33 1.98 0.66 3 1h-3v-1z" fill="#000002"/>
<path transform="translate(915,151)" d="m0 0c0.99 0.33 1.98 0.66 3 1h-3v-1z" fill="#000002"/>
<path transform="translate(738,151)" d="m0 0 4 1z" fill="#000002"/>
<path transform="translate(909,149)" d="m0 0c0.99 0.33 1.98 0.66 3 1h-3v-1z" fill="#000002"/>
<path transform="translate(889,140)" d="m0 0 4 1z" fill="#000002"/>
<path transform="translate(842,131)" d="m0 0 4 1z" fill="#000002"/>
<path transform="translate(1062,696)" d="m0 0c0.66 0.66 1.32 1.32 2 2h-2v-2z" fill="#000002"/>
<path transform="translate(719,525)" d="m0 0c3 1 3 1 3 1z" fill="#000002"/>
<path transform="translate(982,489)" d="m0 0 2 1-2 1v-2z" fill="#000002"/>
<path transform="translate(771,439)" d="m0 0c0.66 0.66 1.32 1.32 2 2h-2v-2z" fill="#000002"/>
<path transform="translate(1033,427)" d="m0 0 2 1-2 1v-2z" fill="#000002"/>
<path transform="translate(1067,381)" d="m0 0c3 1 3 1 3 1z" fill="#000002"/>
<path transform="translate(1146,335)" d="m0 0c0.33 0.66 0.66 1.32 1 2-0.66-0.33-1.32-0.66-2-1 0.33-0.33 0.66-0.66 1-1z" fill="#000002"/>
<path transform="translate(757,257)" d="m0 0 2 1-2 1v-2z" fill="#000002"/>
<path transform="translate(688,187)" d="m0 0h2c-0.33 0.66-0.66 1.32-1 2-0.33-0.66-0.66-1.32-1-2z" fill="#000002"/>
<path transform="translate(962,185)" d="m0 0c3 1 3 1 3 1z" fill="#000002"/>
<path transform="translate(897,142)" d="m0 0c3 1 3 1 3 1z" fill="#000002"/>
<path transform="translate(764,140)" d="m0 0c3 1 3 1 3 1z" fill="#000002"/>
<path transform="translate(886,139)" d="m0 0c3 1 3 1 3 1z" fill="#000002"/>
<path transform="translate(919,954)" d="m0 0 2 1z" fill="#000002"/>
<path transform="translate(1129,730)" d="m0 0 2 1z" fill="#000002"/>
<path transform="translate(805,450)" d="m0 0 2 1z" fill="#000002"/>
<path transform="translate(738,415)" d="m0 0 2 1z" fill="#000002"/>
<path transform="translate(1101,357)" d="m0 0 2 1z" fill="#000002"/>
<path transform="translate(886,250)" d="m0 0 2 1z" fill="#000002"/>
<path transform="translate(712,167)" d="m0 0 2 1z" fill="#000002"/>
<path transform="translate(717,161)" d="m0 0 2 1z" fill="#000002"/>
<path transform="translate(924,156)" d="m0 0 2 1z" fill="#000002"/>
<path transform="translate(728,156)" d="m0 0 2 1z" fill="#000002"/>
<path transform="translate(922,155)" d="m0 0 2 1z" fill="#000002"/>
<path transform="translate(920,154)" d="m0 0 2 1z" fill="#000002"/>
<path transform="translate(742,150)" d="m0 0 2 1z" fill="#000002"/>
<path transform="translate(895,141)" d="m0 0 2 1z" fill="#000002"/>
</svg>
